/* XPM */
static char *result[] = {
/* columns rows colors chars-per-pixel */
"50 50 96 2 ",
"   c #000000",
".  c #000A05",
"X  c #020708",
"o  c #010C0A",
"O  c #0B0E0B",
"+  c #021303",
"@  c #031B01",
"#  c #01130D",
"$  c #0D150F",
"%  c #041A0E",
"&  c #0B1B0B",
"*  c #021512",
"=  c #0D1611",
"-  c #051C13",
";  c #0B1C14",
":  c #0B1818",
">  c #121C13",
",  c #0C230F",
"<  c #062115",
"1  c #0F2715",
"2  c #0B2B15",
"3  c #09221C",
"4  c #0E2B1C",
"5  c #142316",
"6  c #162815",
"7  c #15231D",
"8  c #1D251D",
"9  c #142B1D",
"0  c #192B19",
"q  c #16331C",
"w  c #1E351E",
"e  c #1E381E",
"r  c #152724",
"t  c #1B2420",
"y  c #182C23",
"u  c #133126",
"i  c #1C3224",
"p  c #1F3821",
"a  c #183328",
"s  c #212D24",
"d  c #212E2A",
"f  c #223424",
"g  c #233C25",
"h  c #20322A",
"j  c #27382B",
"k  c #283F2B",
"l  c #2E3736",
"z  c #263D33",
"x  c #2B3C34",
"c  c #26402D",
"v  c #2C432D",
"b  c #31412F",
"n  c #2C4433",
"m  c #2E433A",
"M  c #2E4838",
"N  c #314435",
"B  c #324933",
"V  c #384E37",
"C  c #3A4E3C",
"Z  c #3B523D",
"A  c #3D4C40",
"S  c #3E5242",
"D  c #424D44",
"F  c #404D4A",
"G  c #425542",
"H  c #4A5647",
"J  c #445A45",
"K  c #4C564B",
"L  c #465D49",
"P  c #4F594B",
"I  c #575D58",
"U  c #4C634D",
"Y  c #4F6651",
"T  c #506352",
"R  c #586155",
"E  c #536D54",
"W  c #576B58",
"Q  c #5B6F5A",
"!  c #5B715A",
"~  c #60735E",
"^  c #646661",
"/  c #666A61",
"(  c #6B6E64",
")  c #657362",
"_  c #6C7867",
"`  c #6E7968",
"'  c #76776F",
"]  c #747C6D",
"[  c #777670",
"{  c #787D70",
"}  c #827E77",
"|  c #7E8075",
" . c #818177",
".. c #85827A",
"X. c #8A867E",
"o. c None",
/* pixels */
"o.o.o.o.o.o.o.o.o.o.o.o.o.o.o.o.o.o.o.o.o.o.      o.o.o.o.o.o.o.o.o.o.o.o.o.o.o.o.o.o.o.o.o.o.o.o.o.",
"o.o.o.o.o.o.o.o.o.o.o.o.o.o.o.    o.o.o.              o.o.o.o.o.o.o.o.o.o.o.o.o.o.o.o.o.o.o.o.o.o.o.",
"o.o.o.        o.o.o.o.o.o.o.        o.                      o.o.o.        o.o.o.o.o.    o.o.o.o.o.o.",
"o.o.o.        o.o.o.o.o.o.                                                    o.o.o.        o.o.o.o.",
"o.o.o.o.      o.o.o.                                                                        o.o.o.o.",
"o.o.o.o.o.o.o.o.o.o.                                                                          o.o.o.",
"o.o.o.o.o.o.o.o.o.                                                                              o.o.",
"o.o.o.o.o.o.o.o.o.                                                                              o.o.",
"o.o.o.o.o.o.o.o.                                                                                o.o.",
"o.o.o.o.o.o.o.o.                                                                              o.o.o.",
"o.o.o.o.o.                                                                                      o.o.",
"o.o.o.o.                  X       X                                                             o.o.",
"o.o.o.o.o.                      . - =                                                           o.o.",
"o.o.o.o.o.            X X X # . X ; y > > #                                                     o.o.",
"o.o.o.o.o.          X * o * < X   X ; 9 u -   . . o                               o.            o.o.",
"o.o.o.o.            o * * r d X       . # # o . # o                             o.o.o.o.o.    o.o.o.",
"o.o.o.o.          X     ; F I l t > = o . ; 9 = .                               o.o.o.o.o.o.  o.o.o.",
"o.o.o.            X X X l ' X.] ( R G x q v B n 4 .                               o.o.o.o.o.o.o.o.o.",
"o.o.o.            X X * D } X.X.X.X.[ W U Z v v k X                               o.o.o.o.o.o.o.o.o.",
"o.              X   : m / }  . .| | ] Q E U v c C 7 O                             o.o.  o.o.o.      ",
"                X X i I ` ] _ ~ ! W W Y U G c c J U n 5 .                                           ",
"                    * n E Q Y J N a h j p 0 4 n U ! ( D O                                           ",
"                  # - m W Y C 5 X         X u U ! { X.^ O                                         o.",
"o.                0 C Y E L s           X 4 L W { ..} P O                                       o.o.",
"o.              + e G Y G 8           . 2 V E ~ ..X.( f .                               o.o.o.o.o.o.",
"o.o.            # 2 c B 5           . , B U E ~  .} P &                               o.o.o.o.o.o.o.",
"o.o.            X . 1 p >           . 2 B U E ! ] ( N .                               o.o.o.o.o.o.o.",
"o.o.o.          . o 1 p >           . 2 V Y E E ! H &                                 o.o.o.o.o.o.o.",
"o.o.o.          X X - q &           . 2 Z E E E P $                     . # X         o.o.  o.o.o.o.",
"o.o.                % % .             $ G E E J $                       X                       o.o.",
"o.o.              * % .               O C E E D                         X . . .                 o.o.",
"o.o.            ; g 2 .                 > C J G                       X . . .                     o.",
"o.              - z g o                   = q i X                                                 o.",
"o.o.            X 9 g &                     X o           . .         X X                         o.",
"o.o.              O $ .                                 > 6 0 + .     . .                       o.o.",
"o.o.o.                o.    o.              o         + e v Z n O   = ; X                       o.o.",
"o.o.o.o.o.o.o.o.o.o.o.o.o.                  .       . @ g G Y Y j s N 7       o.o.              o.o.",
"o.o.o.o.o.o.o.o.o.o.o.o.                              + g J S x z G M : X     o.                o.o.",
"o.o.o.o.o.o.o.o.o.o.o.o.                              + g B y * 3 i ; X X                         o.",
"o.o.o.o.o.o.o.o.o.o.o.o.                              . w w * o ; * X                             o.",
"o.o.o.o.o.o.o.o.o.o.o.                                  0 i % o * X           o.              o.o.o.",
"o.o.o.o.o.o.o.o.o.o.o.                                & w q % # X X                           o.o.o.",
"o.o.o.o.o.o.o.o.o.o.o.o.                              5 0 , .                               o.o.o.o.",
"o.o.o.o.o.o.o.o.o.o.o.o.o.                            .                                   o.o.o.o.o.",
"o.o.o.o.o.o.o.o.o.o.o.o.o.o.                                                  o.        o.o.o.o.o.o.",
"o.o.o.o.o.o.o.o.o.o.o.o.o.o.o.                                              o.o.      o.o.o.o.o.o.o.",
"o.o.o.o.o.o.o.o.o.o.o.o.o.o.o.                                              o.o.o.o.o.o.o.o.o.o.o.o.",
"o.o.o.o.o.o.o.o.o.o.o.o.o.o.o.o.                          o.o.o.o.o.      o.o.o.o.o.o.o.o.o.o.o.o.o.",
"o.o.o.o.o.o.o.o.o.o.o.o.o.o.o.o.      o.o.              o.o.o.o.o.o.o.    o.o.o.o.o.o.o.o.o.o.o.o.o.",
"o.o.o.o.o.o.o.o.o.o.o.o.o.o.o.o.o.o.o.o.o.o.o.        o.o.o.o.o.o.o.o.o.o.o.o.o.o.o.o.o.o.o.o.o.o.o."
};
