/* XPM */
static char *result[] = {
/* columns rows colors chars-per-pixel */
"50 50 218 2 ",
"   c #0C2535",
".  c #132735",
"X  c #1B2736",
"o  c #152835",
"O  c #1C2A35",
"+  c #192738",
"@  c #1D2D3A",
"#  c #172638",
"$  c #242D34",
"%  c #2A2E35",
"&  c #222D39",
"*  c #2C2B3A",
"=  c #212738",
"-  c #332C35",
";  c #3D2D34",
":  c #342E3A",
">  c #3B2E3C",
",  c #2B3035",
"<  c #20313D",
"1  c #333035",
"2  c #393136",
"3  c #353039",
"4  c #3C3039",
"5  c #373B3F",
"6  c #422D37",
"7  c #4B2E35",
"8  c #422E3D",
"9  c #4A2E3B",
"0  c #542F34",
"q  c #522E3C",
"w  c #5B2F3C",
"e  c #453136",
"r  c #4E3134",
"t  c #45313B",
"y  c #4C313D",
"u  c #443A3D",
"i  c #543137",
"p  c #54313A",
"a  c #5B323D",
"s  c #5A393A",
"d  c #66312F",
"f  c #643334",
"g  c #6C3334",
"h  c #63323C",
"j  c #6C333C",
"k  c #663B3F",
"l  c #753435",
"z  c #7C3535",
"x  c #73333B",
"c  c #7C353A",
"v  c #7D393E",
"b  c #763939",
"n  c #7D483E",
"m  c #3A2B41",
"M  c #432D41",
"N  c #4C2E44",
"B  c #522E44",
"V  c #5D2F44",
"C  c #5A2D4A",
"Z  c #562E48",
"A  c #4A3040",
"S  c #553143",
"D  c #5B3042",
"F  c #5C3F42",
"G  c #642F45",
"H  c #653043",
"J  c #6C3343",
"K  c #673747",
"L  c #733444",
"P  c #733A42",
"I  c #7C3A41",
"U  c #71354A",
"Y  c #7B3749",
"T  c #6F3950",
"R  c #793D52",
"E  c #664941",
"W  c #7C4349",
"Q  c #7E5046",
"!  c #85362E",
"~  c #833534",
"^  c #8A3734",
"/  c #853936",
"(  c #8D3934",
")  c #84373C",
"_  c #883739",
"`  c #843A3E",
"'  c #8A393B",
"]  c #943A35",
"[  c #943C3C",
"{  c #9B3D3B",
"}  c #903733",
"|  c #A03F3D",
" . c #9A4239",
".. c #874C3F",
"X. c #A4403F",
"o. c #A34B3E",
"O. c #843842",
"+. c #8C3C43",
"@. c #82394C",
"#. c #853948",
"$. c #933C43",
"%. c #9C3E42",
"&. c #933D4B",
"*. c #A23F40",
"=. c #884446",
"-. c #9D4341",
";. c #9C4A45",
":. c #94444A",
">. c #9E434C",
",. c #944345",
"<. c #9B5248",
"1. c #934552",
"2. c #A34142",
"3. c #AB4344",
"4. c #AB4B44",
"5. c #A3434C",
"6. c #AE454B",
"7. c #A94A48",
"8. c #B4464B",
"9. c #B54A4B",
"0. c #BA494E",
"q. c #B14547",
"w. c #AA5141",
"e. c #AA574C",
"r. c #B4514B",
"t. c #B45B49",
"y. c #BB5B4D",
"u. c #B6554A",
"i. c #AA4B54",
"p. c #B64B51",
"a. c #BD4B52",
"s. c #B44753",
"d. c #A95356",
"f. c #A45552",
"g. c #BD5552",
"h. c #BC5C55",
"j. c #BC5757",
"k. c #8E654F",
"l. c #BC624D",
"z. c #AE6350",
"x. c #B86958",
"c. c #A67156",
"v. c #A97357",
"b. c #A97559",
"n. c #B6785B",
"m. c #A2634D",
"M. c #906A60",
"N. c #B66B6D",
"B. c #B87577",
"V. c #A5746D",
"C. c #C34C54",
"Z. c #CA4E59",
"A. c #C35453",
"S. c #C45C54",
"D. c #CC535A",
"F. c #CF5C5B",
"G. c #C95A57",
"H. c #D1535D",
"J. c #D45D5F",
"K. c #D95F5F",
"L. c #C1644F",
"P. c #C96356",
"I. c #C16559",
"U. c #CB6259",
"Y. c #C96956",
"T. c #D5645E",
"R. c #D46A5E",
"E. c #C57054",
"W. c #C8795D",
"Q. c #D2745C",
"!. c #D7785C",
"~. c #D75F60",
"^. c #D76560",
"/. c #D86760",
"(. c #DA6B62",
"). c #D86E65",
"_. c #C87864",
"`. c #DC7461",
"'. c #DD7E61",
"]. c #D87B6B",
"[. c #D87576",
"{. c #C56863",
"}. c #E07E63",
"|. c #DE885F",
" X c #CB835B",
".X c #D4846B",
"XX c #D99579",
"oX c #DD8275",
"OX c #E38464",
"+X c #E38B63",
"@X c #E1856C",
"#X c #E78E68",
"$X c #E99366",
"%X c #E8936A",
"&X c #E68B77",
"*X c #EB9B71",
"=X c #E89676",
"-X c #EEA47D",
";X c #EEA175",
":X c #E28781",
">X c #E89A84",
",X c #EEA482",
"<X c #ECAB8F",
"1X c #F2AA85",
"2X c #E7A796",
"3X c #F4B499",
"4X c #F5AF9B",
"5X c #EDAEA1",
"6X c #F7BAA1",
"7X c #F8BDAC",
"8X c #F7BBA6",
"9X c #EEB6B0",
"0X c #F9C1AF",
"qX c #FAC4B5",
"wX c #FCC7BB",
"eX c #FECDC6",
"rX c #FFD0C9",
"tX c None",
/* pixels */
"tXtXtXtXtXtXtXtXtXtXtXtXtXtXtXtXtXtXtXtXtX          tXtXtXtX  tXtXtXtXtXtXtXtXtXtXtXtXtXtXtXtXtXtXtX",
"tXtXtXtXtXtXtXtXtXtXtXtXtXtXtXtXtXtXtX                              tXtXtXtXtXtXtXtXtXtXtXtXtXtXtXtX",
"tXtXtXtXtXtXtXtXtXtXtXtXtXtXtXtXtX          . o o o o o O o           tXtXtXtXtXtXtXtXtXtXtXtXtXtXtX",
"tXtXtXtXtXtXtXtXtXtXtXtXtX  tXtX      o O $ % : * $ $ , , $ O O o o     tXtXtXtXtXtXtXtXtXtXtXtXtXtX",
"tXtXtXtXtXtXtXtXtXtXtXtX            O * , 1 ; S 9 2 , $ 3 3 1 , , O o tXtXtXtXtXtXtXtXtXtXtXtXtXtXtX",
"tXtXtXtXtXtXtXtXtXtXtX          o % 8 D j b l z z l s t 3 4 M 3 , , $ tXtXtXtXtXtXtXtXtXtXtXtXtXtXtX",
"tXtXtXtXtXtXtXtXtXtXtX        o $ p P &.5.$.O.z l l x j p t 4 3 , , , $ tXtX    tXtXtXtXtXtXtXtXtXtX",
"tXtXtXtXtXtXtXtXtXtXtX      o $ 6 x ' $.+.O.' $.&.&.+.) c I J y 1 3 3 , $ o       tXtXtXtXtXtXtXtXtX",
"tXtXtXtXtXtXtXtXtXtXtX. o o O 1 f ) _ $.*.i.s.a.a.s.3.[ [ [ [ +.J S 4 * O o       tXtXtXtXtXtXtXtXtX",
"tXtXtXtXtXtXtXtXtXo   O $ * 3 i / %.*.i.s.&.&.#.&.$._ ^ [ [ ] ] ' j S M $ o         tXtXtXtXtXtXtXtX",
"tXtXtXtXtXtXtXtXtXo o $ : M N h ] 2.S.oX[.j.5.O.c ~ z c _ 3.0.w. .z G Z > @ o o . tXtXtXtXtXtXtXtXtX",
"tXtXtXtXtXtXtXtXo o O , 4 B p l ] r.:X7X7X:XG.2.^ } ( ! ^ 0.T.!.t.( c G N * O $ $ tXtXtXtXtXtXtXtXtX",
"tXtXtXtXtXtXtXtX  o O $ 1 t p l 2.].7XrX9XB.&.Y L O.' ] } q.D.`.Q.;.z x S 3 $ , $ $ tXtXtXtXtXtXtXtX",
"tXtXtXtXtXtXtXtXo $ O O $ e h O.x.>X6X5XB.T C C C G U O.^ 3.8.A.U.5.c c y 1 $ , , O tXtXtXtXtXtXtXtX",
"tXtXtXtXtXtX    O $ o O , y j :.].,X=X_.R C G C G G V G L $.q.3.3.$.c z f 4 , $ , $ o tXtXtXtXtXtXtX",
"tXtXtXtXtX      $ $ O O 4 H b f.*X;XOXi.H U U q 6 6 9 q V L 5.6.2.] z z l y 1 $ $ $ o   tXtXtXtXtXtX",
"tXtXtXtXtX    . $ O O % N j ~ x.*X*X!. .g j 9 X .   . % 6 V #.a.C.3.] ~ j 9 1 * $ $ o     tXtXtXtXtX",
"tXtXtXtXtX      O o O 8 V L ,._.*X$XQ.] d $             X 6 U s.0.C.3.' j 8 4 : $ $ O o   tXtXtXtXtX",
"tXtXtXtXtX      .   * V x +.h.@X=X+XG.b $                 @ B *.8.0.0.$.J N > > $ O O o   tXtXtXtXtX",
"tXtXtXtXtX        + 8 x ^ 3.T.(.R.R.6.y                     = Y 3.0.C.7.c w > > , o o     tXtXtXtXtX",
"tXtXtXtXtX. o + $ y l { 3.C.H.H.A.7.+.@                       q -.8.a.3._ h t 4 1 o     tXtXtXtXtXtX",
"tXtXtXtXm : 0 g O.5.9.C.C.a.0.0.3.{ P .                       ;  .9.g.9.[ L j g p : X o . tXtXtXtXtX",
"tXtX= 8 S I  .4.w.y.r.0.q.X.o.y.A.p.K < @ @ & < @ @ < < < < @ u <.Y.T.A.9.:.` -. ./ l p ; * X tXtXtX",
"tXm w z +.S.(.!.+X+X'.R.D.9.4.l.Q.Q.n.v.c.c.v.v.b.b.b.b.b.B.M.x.R.^.`.`.R.S.h.I.I.S.g.a.h.<.P S 7 tX",
"tXN w b %.r.j.p.g.S.P.P.u.| { ] X.w.P.U.t.y.P.!.|.W.x.S.t.t.y.Y.'.'.@X).Z.C.0.C.C.D.T.R.E.x.e.=.f 6 ",
"tXtXtXtXN w f x ~ ! ] o.9.q.{ { 2.5.2.,.b l b =.1.Y J P g b n =.<.{.[.A.{ [ ( ( ] [ ..s 2 2 2 tXtXtX",
"tXtXtXtXtXtXo = * ; f ~ %.*.( _  .+.d r ; % O X o $ $ @ O O $ e F N.[.h.] / / ~ l r $ o . tXtXtXtXtX",
"tXtXtXtXtXtX      . 9 H @.*.~ J O.,.i = O .               . . - M.2X4X.X2.( O.j a %   o tXtXtXtXtXtX",
"tXtXtXtXtXtX      . 7 H @.%.} _ ' [ v =                       n XX0X8X<Xx._ x H 0 $ . $ tXtXtXtXtXtX",
"tXtXtXtXtXtXtX      ; w Y %.| 3.s.X.' p                     5 b.<XqX0X<Xx.~ x j 7 + o $ tXtXtXtXtXtX",
"tXtXtXtXtXtXtX      - r j $.*.0.Z.q.( s O                 o k.XX8XwX3X=Xd.^ c j 6 . O , tXtXtXtXtXtX",
"tXtXtXtXtXtXtX      X ; f / *.C.H.C.2.v 4 $             o E  X1XwXqX3X.X4.%.O.h > . O O tXtXtXtXtXtX",
"tXtXtXtXtXtXtX      . - 7 l q.H.H.H.C.2.O.s N * o . o % 6 m.=X8XeX6X-XE.3.&.L 9 * o O . tXtXtXtXtXtX",
"tXtXtXtXtXtX          @ : a >.H.H.H.F.A.g.7.v y 4 - - ; H _.3XqXqX,X$XL.%.U t 2 @ . o . tXtXtXtXtXtX",
"tXtXtXtXtXtX          . O 1 W P.K.K.T.T.R.Q.x.Q F a x 1.N.>X3X9X>X#XOXy.Y p 3 : X       tXtXtXtXtXtX",
"tXtXtXtXtXtXtX      . o O $ s z.`.T.T.`.OX$X|.h.d.i.I.oX=X,X,X=X@XOX^.1.D 4 M M =     tXtXtXtXtXtXtX",
"tXtXtXtXtXtXtXtXtX  O $ $ $ 2 =.P.T.T.`.}.}.}./.^.(.}.;X,X-X*X+X#X`.i.K m 4 Z m +     tXtXtXtXtXtXtX",
"tXtXtXtXtXtXtXtXtXtXO $ , , 1 s X.G.(.`.(.(.^.~.J.^.@X-X-X;X$X+X_.d.U M 1 M Z *   tXtXtXtXtXtXtXtXtX",
"tXtXtXtXtXtXtXtXtXtXO $ , 4 4 r ( X.G.+X#X}.!.T.K.H.].=X%X|.E.u.:.J 8 , : M m #   tXtXtXtXtXtXtXtXtX",
"tXtXtXtXtXtXtXtXtXtX. o % 4 N 9 d } o.E.+X$X#XR.(.K.J.T.U.u. .^ H q 2 , $ & +   tXtXtXtXtXtXtXtXtXtX",
"tXtXtXtXtXtXtXtXtXtXtXtX$ 2 N N 9 g !  .t.Q.`.K.J.J.Z.8. .} ( v s 2 , O o       tXtXtXtXtXtXtXtXtXtX",
"tXtXtXtXtXtXtXtXtXtXtXtXtX, 4 N ; : 0 g l  .i.p.0.8.X.} ! z K y , $ o o         tXtXtXtXtXtXtXtXtXtX",
"tXtXtXtXtXtXtXtXtXtXtXtXtXtX: 3 : $ o * N N B j l z l l g e , & % $ O o           tXtXtXtXtXtXtXtXtX",
"tXtXtXtXtXtXtXtXtXtXtXtXtXtXo $ $ $     o $ % ; N q S y 4 , * 3 > * O .         tXtXtXtXtXtXtXtXtXtX",
"tXtXtXtXtXtXtXtXtXtXtXtXtXtX  o o o .     o o m N B B B N 1 , 1 % O           tXtXtXtXtXtXtXtXtXtXtX",
"tXtXtXtXtXtXtXtXtXtXtXtXtXtX                  # * : m m 3 $ & o o .         tXtXtXtXtXtXtXtXtXtXtXtX",
"tXtXtXtXtXtXtXtXtXtXtXtXtXtXtXtX                        .           tXtXtX  tXtXtXtXtXtXtXtXtXtXtXtX",
"tXtXtXtXtXtXtXtXtXtXtXtXtXtXtXtXtXtXtXtXtX                      tXtXtXtXtXtXtXtXtXtXtXtXtXtXtXtXtXtX",
"tXtXtXtXtXtXtXtXtXtXtXtXtXtXtXtXtXtXtXtXtXtXtXtXtX          tXtXtXtXtXtXtXtXtXtXtXtXtXtXtXtXtXtXtXtX",
"tXtXtXtXtXtXtXtXtXtXtXtXtXtXtXtXtXtXtXtXtXtXtXtXtXtXtXtXtXtXtXtXtXtXtXtXtXtXtXtXtXtXtXtXtXtXtXtXtXtX"
};
