/* XPM */
static char *collectable_star1700914695[] = {
/* columns rows colors chars-per-pixel */
"27 29 5 1 ",
"  c None",
". c #192636",
"X c #0A6071",
"o c #6AACF0",
"O c #DBFFF8",
/* pixels */
"                           ",
"                           ",
"                           ",
"                       .   ",
"  .       ..          .    ",
"   .    ..     ..    .     ",
"    . ..         .. X      ",
"     .             .       ",
"     .X   .XXX.   o.       ",
"    .  o .     . o  .      ",
"    .   o       o   .      ",
"   .   . o ... o .   .     ",
"      .   XoooX   .  .     ",
"      X  .oOOOo.  X     O  ",
"      X  .oOOOo.  X        ",
"   .  X  .oOOOo.  X        ",
"   .  .   XoooX   .        ",
"    .  . o ... o .  .      ",
"    .   o       o   .      ",
"     . o .     . o .       ",
"     .o   .XXX.   o.       ",
"     X..         ..o       ",
"    .   ..     ..   X      ",
"   .      ..         X     ",
"  .                   .    ",
"                       .   ",
"                        .  ",
"       X                   ",
"                           "
};
