/* XPM */
static char *result[] = {
/* columns rows colors chars-per-pixel */
"50 50 245 2 ",
"   c black",
".  c #050605",
"X  c #050506",
"o  c #060706",
"O  c #070707",
"+  c #0C0D0C",
"@  c gray6",
"#  c #101213",
"$  c #131514",
"%  c #141615",
"&  c #151715",
"*  c #151716",
"=  c #171A19",
"-  c #16191A",
";  c #17191A",
":  c #191818",
">  c #191919",
",  c #191B1A",
"<  c #1B1A1A",
"1  c #1B1D1B",
"2  c #181B1C",
"3  c #1E1E1E",
"4  c #1D201E",
"5  c #1D211F",
"6  c #1E211F",
"7  c #1B1E20",
"8  c #1F2321",
"9  c #1E2122",
"0  c #202020",
"q  c #222221",
"w  c #222624",
"e  c #232725",
"r  c #252926",
"t  c #232628",
"y  c #262A28",
"u  c #24282A",
"i  c #25292B",
"p  c #272B2D",
"a  c #2C2C2B",
"s  c #282D2F",
"d  c #2F2E2E",
"f  c #2D322F",
"g  c #2E3431",
"h  c #2D3134",
"j  c #303532",
"k  c #323835",
"l  c #343A36",
"z  c #33393C",
"x  c #393F3F",
"c  c #39403C",
"v  c #3A4041",
"b  c #424A45",
"n  c #464D48",
"m  c #494E4B",
"M  c #484F4B",
"N  c #4A504D",
"B  c #49514E",
"V  c #4C544F",
"C  c #495054",
"Z  c #505853",
"A  c #545D57",
"S  c #535B58",
"D  c gray35",
"F  c gray36",
"G  c #58615B",
"H  c #58625C",
"J  c #5B655F",
"K  c #454775",
"L  c #474A7B",
"P  c #494D7D",
"I  c #4B4F7E",
"U  c #576065",
"Y  c #5D6063",
"T  c #5D6862",
"R  c #5F6863",
"E  c gray38",
"W  c gray40",
"Q  c #606963",
"!  c #616C65",
"~  c gray42",
"^  c #6A6D70",
"/  c #6A7571",
"(  c #697474",
")  c gray44",
"_  c #717171",
"`  c gray46",
"'  c #767676",
"]  c #767776",
"[  c #707D75",
"{  c gray49",
"}  c #748078",
"|  c #646B8B",
" . c #61698E",
".. c #6A718E",
"X. c #6A718F",
"o. c #737F81",
"O. c #727A94",
"+. c #727B95",
"@. c #4D64B1",
"#. c #4D64B2",
"$. c #4C64B3",
"%. c #4C65B5",
"&. c #4D67B6",
"*. c #687FBB",
"=. c #748082",
"-. c #79868B",
";. c #79868C",
":. c #7B878D",
">. c #7B888A",
",. c #7C898E",
"<. c #7386C4",
"1. c #7C8DC8",
"2. c #7C8EC8",
"3. c #4A95E1",
"4. c #4D96E2",
"5. c #4999E6",
"6. c #5198E2",
"7. c #6FA9E6",
"8. c #75B2EC",
"9. c #878B89",
"0. c #878F8A",
"q. c #839093",
"w. c #8D9C9F",
"e. c #949394",
"r. c #949F98",
"t. c #95A09A",
"y. c #828DA0",
"u. c #8E9AA8",
"i. c #8F9DAD",
"p. c #9EAAA3",
"a. c #9BACA3",
"s. c #9CACA3",
"d. c #9DAEA4",
"f. c #96A4AD",
"g. c #9FB0A6",
"h. c #99A7B0",
"j. c #9AA8B1",
"k. c #9EADB3",
"l. c #9EAEB3",
"z. c #9FAFB3",
"x. c #9FAEB4",
"c. c #A8B5AD",
"v. c #A0B1B6",
"b. c #A2B3B7",
"n. c #A7B8B5",
"m. c #A7B8BC",
"M. c #AEC0B6",
"N. c #8798CD",
"B. c #8898CD",
"V. c #9AAFC7",
"C. c #9FACD6",
"Z. c #ACBEC1",
"A. c #AEB9DD",
"S. c #AFC2C4",
"D. c #B0C2C0",
"F. c #B2C5C6",
"G. c #B5C8C4",
"H. c #B7CAC5",
"J. c #BACDC2",
"K. c #B8CBC7",
"L. c #B9CCC9",
"P. c #BBCEC8",
"I. c #BCCFC9",
"U. c #BDD1C6",
"Y. c #BED2C7",
"T. c #BDD1CA",
"R. c #BED2CB",
"E. c #BFD3CB",
"W. c #BFD3CC",
"Q. c #BFD5CF",
"!. c #B7C1E0",
"~. c #BEC7E5",
"^. c #B0CBEB",
"/. c #BBD8F3",
"(. c #C0D4C7",
"). c #C0D4CB",
"_. c #C0D5CB",
"`. c #C1D6CA",
"'. c #C2D6CB",
"]. c #C2D7CB",
"[. c #C1D6CD",
"{. c #C2D6CD",
"}. c #C3D8CD",
"|. c #C4D9CC",
" X c #C4D8CE",
".X c #C6DBCF",
"XX c #C2D6D0",
"oX c #C7DCD0",
"OX c #C6DCD2",
"+X c #C8DDD1",
"@X c #C8DED1",
"#X c #C8DDD3",
"$X c #CBDDD3",
"%X c #CADFD2",
"&X c #CBDED3",
"*X c #D6DEDA",
"=X c #CBE0D3",
"-X c #CBE0D4",
";X c #CDE0D5",
":X c #CEE3D5",
">X c #CEE1D6",
",X c #CFE1D7",
"<X c #D0E4D6",
"1X c #D2E6DA",
"2X c #D6E8DE",
"3X c #C0C9E4",
"4X c #C5CDE7",
"5X c #C7CEE8",
"6X c #DDEEE4",
"7X c #EEEEEE",
"8X c #E1F1E8",
"9X c #E5F4EB",
"0X c #E0EDF3",
"qX c #E6E9F5",
"wX c #E9EBF6",
"eX c #EDF8F1",
"rX c #EEF0F8",
"tX c #EAF5FF",
"yX c #F3F3F3",
"uX c #F0F7F3",
"iX c #F6F5F3",
"pX c #F3F4F4",
"aX c #F4F9F5",
"sX c #F4FAF6",
"dX c #F4FAF7",
"fX c #F5FBF7",
"gX c #F6FAF7",
"hX c #F8FAF7",
"jX c #F3F4F9",
"kX c #F1F9FF",
"lX c #F8F8F8",
"zX c #F9F9F9",
"xX c #F8F8FA",
"cX c #FCFBFA",
"vX c #F8FDF8",
"bX c #F9FEF8",
"nX c #F8FFFB",
"mX c #FAFBFD",
"MX c #FBFBFE",
"NX c #FBFDFC",
"BX c #FEFCFD",
"VX c #FDFEFE",
"CX c #FEFEFE",
"ZX c white",
"AX c None",
/* pixels */
"AXAXAXAXAXAXAXAXAXAXAXAXAXAXAXAXAXAXAXAXAXAXAXAXAXAXAXAXAXAXAXAXAXAXAXAXAXAXAXAXAXAXAXAXAXAXAXAXAXAX",
"AXAXAXAXAXAXAXAXAXAXAXAXAXAXAXAXAXAXAXAXAXAXAXAXAXAXAXAXAXAXAXAXAXAXAXAXAXAXAXAXAXAXAXAXAXAXAXAXAXAX",
"AXAXAXAXAXAXAXAXAXAXAXAXAXAXAXAXAXAXAXAXAXAXAXAXAXAXAXAXAXAXAXAXAXAXAXAXAXAXAXAXAXAXAXAXAXAXAXAXAXAX",
"AXAXAXAXAXAXAXAXAXAXAXAXAXAXAXAXAXAXAXAXAXAXAXAXAXAXAXAXAXAXAXAXAXAXAXAXAXAXAXAXAXAXAXAXAXAXAXAXAXAX",
"AXAXAXAXAXAXAXAXAXAXAXAXAXAXAXAXAXAXAXAXAXAXAXAXAXAXAXAXAXAXAXAXAXAXAXAXAXAXAXAXAXAXAXAXAXAXAXAXAXAX",
"AXAXAXAXAXAXAXAXAXAXAXAXAXAXAXAXAXAXAXAXAXAXAXAXAXAXAXAXAXAXAXAXAXAXAXAXAXAXAXAXAXAXAXAXAXAXAXAXAXAX",
"AXAXAXAXAXAXAXAXAXAXAXAXAXAXAXAXAXAXAXAXAXAXAXAXAXAXAXAXAXAXAXAXAXAXAXAXAXAXAXAXAXAXAXAXAXAXAXAXAXAX",
"AXAXAXAXAXAXAXAXAXAXAXAXAXAXAXAXAXAXAXAXAXAXAXAXAXAXAXAXAXAXAXAXAXAXAXAXAXAXAXAXAXAXAXAXAXAXAXAXAXAX",
"AXAXAXAXAXAXAXAXAXAXAXAXAXAXAXAXAXAXAXAXAXAXAXAXAXAXAXAXAXAXAXAXAXAXAXAXAXAXAXAXAXAXAXAXAXAXAXAXAXAX",
"AXAXAXAXAXAXAXAXAXAXAXAXAXAXAXAXAXAXAXAXAXAXAXAXAXAXAXAXAXAXAXAXAXAXAXAXAXAXAXAXAXAXAXAXAXAXAXAXAXAX",
"AXAXAXAXAXAXAXAXAXAXAXAXAXAXAXAXAXAXAXAXAXAXAXAXAXAXAXAXAXAXAXAXAXAXAXAXAXAXAXAXAXAXAXAXAXAXAXAXAXAX",
"AXAXAXAXAXAXAXAXAXAXAXAXAXAXAXAXAXAXAXAXAXAX  AXAXAXAX  AXAXAXAXAXAXAXAXAXAXAXAXAXAXAXAXAXAXAXAXAXAX",
"AXAXAXAXAXAXAXAXAXAXAXAXAXAXAXAXAXAXAXAXAXAX@ _     H + AXAXAXAXAXAXAXAXAXAXAXAXAXAXAXAXAXAXAXAXAXAX",
"AXAXAXAXAXAXAXAXAXAXAXAXAXAXAXAXAXAXAXAXAXAX0 yX' R U., AXAXAXAXAXAXAXAXAXAXAXAXAXAXAXAXAXAXAXAXAXAX",
"AXAXAXAXAXAXAXAXAX  g l AXAXAXAXAXAXAXAXAXAX3 zXZX1X'.= AXAXAXAXAXAXAXAXAXAXs u   AXAXAXAXAXAXAXAXAX",
"AXAXAXAXAXAXAXAXAX  0.r.b k AXAXAXAXAXAXAXAX3 lXNX&X`.= AXAXAXAXAXAXAXAXp z o.(   AXAXAXAXAXAXAXAXAX",
"AXAXAXAXAXAXAXAXAX  e.nX9Xt.c k AXAXAXAXAXAX3 lXNX&X`.= AXAXAXAXAXAXp h =.F.XX}   AXAXAXAXAXAXAXAXAX",
"AXAXAXAXAXAXAXAXAX  9.ZXZXuX8Xp.k j AXAXAXAX< lXNX&X`.& AXAXAXAXi p >.S.I.%X#X/   AXAXAXAXAXAXAXAXAX",
"AXAXAXAXAXAXAXAXAX  [ eXZXZXZXaX6Xc.f y   o m zXNX&X].x X   9 t q.Z.R.%XoX@XL.U   AXAXAXAXAXAXAXAXAX",
"AXAXAXAXAXAXAXAXAXAXT *XZXZXrXqXZXgX2Xg.  5 >XCXNX&X.Xv.;   ,.m.).%XG.P.+X-Xn.C AXAXAXAXAXAXAXAXAXAX",
"AXAXAXAXAXAXAXAXAXAXAX` 7XZXA.N.mXwXfXa.  4 $XVXNX&X.Xl.-   -.W.H.}.O.u.:XJ.J AXAXAXAXAXAXAXAXAXAXAX",
"AXAXAXAXAXAXAXAXAXAXAXAX) iX~.C.4X2.bXa.  4 $XVXNX&X.Xl.-   -.{.X.k.y.h.(.G AXAXAXAXAXAXAXAXAXAXAXAX",
"AXAXAXAXAXAXAXAXAXAXAXAXAX~ pXZX3X1.bXa.  4 $XVXNX&X.Xl.-   -.{...j.=XY.A AXAXAXAXAXAXAXAXAXAXAXAXAX",
"AXAXAXAXAXAXAXAXAXAXAXAXAXAXW cX5XB.vXa.  4 $XVXNX&X.Xl.-   -.[.+.x.|.Z AXAXAXAXAXAXAXAXAXAXAXAXAXAX",
"AXAXAXAXAXAXAXAXAXAXAXAXAXAXAXE xXMXdXa.  4 $XVXNX&X.Xl.-   -.E. X'.V AXAXAXAXAXAXAXAXAXAXAXAXAXAXAX",
"AXAXAXAXAXAXAXAXAXAXAXAXAXAXAXAXF CXdXa.  4 $XVXNX&X.Xl.-   -.W..XM AXAXAXAXAXAXAXAXAXAXAXAXAXAXAXAX",
"AXAXAXAXAXAXAXAXAXAXAXAXAXAXAXAXAXD sXs.  4 $XVXNX&X.Xl.-   ;.R.n AXAXAXAXAXAXAXAXAXAXAXAXAXAXAXAXAX",
"AXAXAXAXAXAXAXAXAXAXAXAXAXAXAXAXAXAXN d.  8 $XVXNX&X.Xz.2   :.v AXAXAXAXAXAXAXAXAXAXAXAXAXAXAXAXAXAX",
"AXAXAXAXAXAXAXAXAXAXAXAXAXAXAXAXAXAXAX* 6 M.;XVXNX&XoX_.w.; # AXAXAXAXAXAXAXAXAXAXAXAXAXAXAXAXAXAXAX",
"AXAXAXAXAXAXAXAXAXAXAXAXAXAXAXAXAXAXAXAXe ,XhXjX<.*.Q.+Xb.7 AXAXAXAXAXAXAXAXAXAXAXAXAXAXAXAXAXAXAXAX",
"AXAXAXAXAXAXAXAXAXAXAXAXAXAXAXAXAXAXAXAXa 0X8.7.&.#. .| D.w AXAXAXAXAXAXAXAXAXAXAXAXAXAXAXAXAXAXAXAX",
"AXAXAXAXAXAXAXAXAXAXAXAXAXAXAXAXAXAXAXAXd tX5.3.&.@.L K K.r AXAXAXAXAXAXAXAXAXAXAXAXAXAXAXAXAXAXAXAX",
"AXAXAXAXAXAXAXAXAXAXAXAXAXAXAXAXAXAXAXAXAXY /.6.&.@.I f.B AXAXAXAXAXAXAXAXAXAXAXAXAXAXAXAXAXAXAXAXAX",
"AXAXAXAXAXAXAXAXAXAXAXAXAXAXAXAXAXAXAXAXAXq kX4.&.@.P T.1 AXAXAXAXAXAXAXAXAXAXAXAXAXAXAXAXAXAXAXAXAX",
"AXAXAXAXAXAXAXAXAXAXAXAXAXAXAXAXAXAXAXAXAXAX^ ^.%.$.i.S AXAXAXAXAXAXAXAXAXAXAXAXAXAXAXAXAXAXAXAXAXAX",
"AXAXAXAXAXAXAXAXAXAXAXAXAXAXAXAXAXAXAXAXAXAX: BX!.V.OX$ AXAXAXAXAXAXAXAXAXAXAXAXAXAXAXAXAXAXAXAXAXAX",
"AXAXAXAXAXAXAXAXAXAXAXAXAXAXAXAXAXAXAXAXAXAX> { ZX<X! % AXAXAXAXAXAXAXAXAXAXAXAXAXAXAXAXAXAXAXAXAXAX",
"AXAXAXAXAXAXAXAXAXAXAXAXAXAXAXAXAXAXAXAXAXAXAXO ] Q . AXAXAXAXAXAXAXAXAXAXAXAXAXAXAXAXAXAXAXAXAXAXAX",
"AXAXAXAXAXAXAXAXAXAXAXAXAXAXAXAXAXAXAXAXAXAXAXAX    AXAXAXAXAXAXAXAXAXAXAXAXAXAXAXAXAXAXAXAXAXAXAXAX",
"AXAXAXAXAXAXAXAXAXAXAXAXAXAXAXAXAXAXAXAXAXAXAXAXAXAXAXAXAXAXAXAXAXAXAXAXAXAXAXAXAXAXAXAXAXAXAXAXAXAX",
"AXAXAXAXAXAXAXAXAXAXAXAXAXAXAXAXAXAXAXAXAXAXAXAXAXAXAXAXAXAXAXAXAXAXAXAXAXAXAXAXAXAXAXAXAXAXAXAXAXAX",
"AXAXAXAXAXAXAXAXAXAXAXAXAXAXAXAXAXAXAXAXAXAXAXAXAXAXAXAXAXAXAXAXAXAXAXAXAXAXAXAXAXAXAXAXAXAXAXAXAXAX",
"AXAXAXAXAXAXAXAXAXAXAXAXAXAXAXAXAXAXAXAXAXAXAXAXAXAXAXAXAXAXAXAXAXAXAXAXAXAXAXAXAXAXAXAXAXAXAXAXAXAX",
"AXAXAXAXAXAXAXAXAXAXAXAXAXAXAXAXAXAXAXAXAXAXAXAXAXAXAXAXAXAXAXAXAXAXAXAXAXAXAXAXAXAXAXAXAXAXAXAXAXAX",
"AXAXAXAXAXAXAXAXAXAXAXAXAXAXAXAXAXAXAXAXAXAXAXAXAXAXAXAXAXAXAXAXAXAXAXAXAXAXAXAXAXAXAXAXAXAXAXAXAXAX",
"AXAXAXAXAXAXAXAXAXAXAXAXAXAXAXAXAXAXAXAXAXAXAXAXAXAXAXAXAXAXAXAXAXAXAXAXAXAXAXAXAXAXAXAXAXAXAXAXAXAX",
"AXAXAXAXAXAXAXAXAXAXAXAXAXAXAXAXAXAXAXAXAXAXAXAXAXAXAXAXAXAXAXAXAXAXAXAXAXAXAXAXAXAXAXAXAXAXAXAXAXAX",
"AXAXAXAXAXAXAXAXAXAXAXAXAXAXAXAXAXAXAXAXAXAXAXAXAXAXAXAXAXAXAXAXAXAXAXAXAXAXAXAXAXAXAXAXAXAXAXAXAXAX",
"AXAXAXAXAXAXAXAXAXAXAXAXAXAXAXAXAXAXAXAXAXAXAXAXAXAXAXAXAXAXAXAXAXAXAXAXAXAXAXAXAXAXAXAXAXAXAXAXAXAX",
"AXAXAXAXAXAXAXAXAXAXAXAXAXAXAXAXAXAXAXAXAXAXAXAXAXAXAXAXAXAXAXAXAXAXAXAXAXAXAXAXAXAXAXAXAXAXAXAXAXAX"
};
