/* XPM */
static char *down1700914695[] = {
/* columns rows colors chars-per-pixel */
"48 48 8 1 ",
"  c None",
". c black",
"X c #484A77",
"o c #4D65B4",
"O c #4D9BE6",
"+ c #9BABB2",
"@ c #C7DCD0",
"# c white",
/* pixels */
"                                                ",
"                                                ",
"                                                ",
"                                                ",
"                                                ",
"                                                ",
"                                                ",
"                                                ",
"                                                ",
"                                                ",
"                                                ",
"                     ..  ..                     ",
"                     .#..@.                     ",
"         ..          .##@@.          ..         ",
"         .@..        .##@@.        ..+.         ",
"         .#@@..      .##@@.      ..++@.         ",
"         .###@@..    .##@@.    ..++@@@.         ",
"         .@####@@.....##@@.....++@@@@+.         ",
"         .@######@@..@##@@+..++@@@@@@+.         ",
"          .###o###@..@##@@+..+@@@X@@@.          ",
"           .##o#o#@..@##@@+..+@X@X@@.           ",
"            .###o#@..@##@@+..+@X@@@.            ",
"             .##o#@..@##@@+..+@X@@.             ",
"              .###@..@##@@+..+@@@.              ",
"               .##@..@##@@+..+@@.               ",
"                .#@..@##@@+..+@.                ",
"                 .@..@##@@+..+.                 ",
"                  ..@@##@@@+..                  ",
"                   .@##oo@@+.                   ",
"                   .#OOooXX@.                   ",
"                   .#OOooXX@.                   ",
"                    .#OooX@.                    ",
"                    .#OooX@.                    ",
"                     .#oo@.                     ",
"                     .##@@.                     ",
"                      .#@.                      ",
"                       ..                       ",
"                                                ",
"                                                ",
"                                                ",
"                                                ",
"                                                ",
"                                                ",
"                                                ",
"                                                ",
"                                                ",
"                                                ",
"                                                "
};
