/* XPM */
static char *result[] = {
/* columns rows colors chars-per-pixel */
"50 50 158 2 ",
"   c black",
".  c #000003",
"X  c #000005",
"o  c #000009",
"O  c #00000B",
"+  c #00000C",
"@  c #00000E",
"#  c #000012",
"$  c #000013",
"%  c #000213",
"&  c #000014",
"*  c #000015",
"=  c #000017",
"-  c #000019",
";  c #00001B",
":  c #000C1B",
">  c #000028",
",  c #00002A",
"<  c #00002B",
"1  c #00002C",
"2  c #000A28",
"3  c #00092B",
"4  c #000037",
"5  c #000D32",
"6  c #000D33",
"7  c #000D34",
"8  c #000F37",
"9  c #000038",
"0  c #002036",
"q  c #001A46",
"w  c #001B48",
"e  c #002242",
"r  c #00225C",
"t  c #00255E",
"y  c #001962",
"u  c #001A62",
"i  c #001D65",
"p  c #001A7A",
"a  c #002763",
"s  c #002B67",
"d  c #003A6F",
"f  c #001083",
"g  c #001583",
"h  c #001084",
"j  c #001584",
"k  c #001986",
"l  c #001988",
"z  c #001E8A",
"x  c #002084",
"c  c #003B94",
"v  c #003F98",
"b  c #004283",
"n  c #004788",
"m  c #004495",
"M  c #004A95",
"N  c #00419D",
"B  c #00499E",
"V  c #004EA1",
"C  c #0050AC",
"Z  c #0059AE",
"A  c #005CB5",
"S  c #0062A2",
"D  c #0064A2",
"F  c #0065A5",
"G  c #0069A3",
"H  c #006AAE",
"J  c #0074B0",
"K  c #005EC3",
"L  c #005BC6",
"P  c #0055C9",
"I  c #0056C8",
"U  c #0073CE",
"Y  c #007ECE",
"T  c #007AD0",
"R  c #007BE5",
"E  c #007CE5",
"W  c #0081C2",
"Q  c #0083C3",
"!  c #0090CA",
"~  c #0091CA",
"^  c #0092CB",
"/  c #0093CB",
"(  c #0093CD",
")  c #0095CF",
"_  c #0096CE",
"`  c #0097CE",
"'  c #0096CF",
"]  c #0097CF",
"[  c #008AD4",
"{  c #0082DA",
"}  c #0097D0",
"|  c #0098D0",
" . c #0099D1",
".. c #009AD2",
"X. c #009BD2",
"o. c #00A4D9",
"O. c #00A9DD",
"+. c #009AE5",
"@. c #00A5E5",
"#. c #00ADE5",
"$. c #00A3EB",
"%. c #00A4E9",
"&. c #00B1EA",
"*. c #00B7EC",
"=. c #00A6F9",
"-. c #00A6FE",
";. c #00ABFD",
":. c #00B5F7",
">. c #00B1FB",
",. c #00B3FB",
"<. c #00B2FD",
"1. c #00B3FD",
"2. c #01BBFC",
"3. c #00C5FF",
"4. c #00CFFF",
"5. c #00D3FF",
"6. c #02D5FF",
"7. c #00D9FF",
"8. c #00DBFE",
"9. c #07DAFF",
"0. c #02DCFF",
"q. c #00DEFF",
"w. c #00DFFF",
"e. c #00E0FF",
"r. c #00E8FF",
"t. c #00EBFF",
"y. c #06E9FF",
"u. c #00EDFF",
"i. c #11E0FF",
"p. c #12E1FF",
"a. c #13E2FF",
"s. c #17E8FF",
"d. c #1AE8FF",
"f. c #00F0FF",
"g. c #00F1FF",
"h. c #00F2FF",
"j. c #00F4FF",
"k. c #00F5FF",
"l. c #00F8FF",
"z. c #00F9FF",
"x. c #14FCFF",
"c. c #15FDFF",
"v. c #23FFFF",
"b. c #47FDFF",
"n. c #87FFFF",
"m. c #8DFFFF",
"M. c #8FFFFF",
"N. c #92FFFF",
"B. c #93FFFF",
"V. c #98FFFF",
"C. c #D4FFFF",
"Z. c #E1FFFF",
"A. c #FAFFFF",
"S. c #FBFFFF",
"D. c #FCFFFF",
"F. c #FEFFFF",
"G. c white",
"H. c None",
/* pixels */
"H.H.H.H.H.H.H.H.H.H.H.H.H.H.H.H.H.H.H.H.H.H.H.H.H.H.H.H.H.H.H.H.H.H.H.H.H.H.H.H.H.H.H.H.H.H.H.H.H.H.",
"H.H.H.H.H.H.H.H.H.H.H.H.H.H.H.H.H.H.H.H.H.H.H.H.H.H.H.H.H.H.H.H.H.H.H.H.H.H.H.H.H.H.H.H.H.H.H.H.H.H.",
"H.H.H.H.H.H.H.H.H.H.H.H.H.H.H.H.H.H.H.H.H.H.H.H.H.H.H.H.H.H.H.H.H.H.H.H.H.H.H.H.H.H.H.H.H.H.H.H.H.H.",
"H.H.H.H.H.H.H.H.H.H.H.H.H.H.H.H.H.H.H.H.H.H.H.H.H.H.H.H.H.H.H.H.H.H.H.H.H.H.H.H.H.H.H.H.H.H.H.H.H.H.",
"H.H.H.H.H.H.H.H.H.H.H.H.H.H.H.H.H.H.H.H.H.H.H.H.H.H.H.H.H.H.H.H.H.H.H.H.H.H.H.H.H.H.H.H.H.H.H.H.H.H.",
"H.H.H.H.H.H.H.H.H.H.H.H.H.H.H.H.H.H.H.H.H.H.H.H.H.H.H.H.H.H.H.H.H.H.H.H.H.H.H.H.H.H.H.  H.H.H.H.H.H.",
"H.H.H.H.H.H.H.H.H.H.H.H.H.H.H.H.H.H.H.H.H.H.H.H.H.H.H.H.H.H.H.H.H.H.H.H.H.H.H.H.H.H.    H.H.H.H.H.H.",
"H.H.H.H.  H.H.H.H.H.H.H.H.H.H.H.H.H.H.      H.H.H.H.H.H.H.H.H.H.H.H.H.H.H.H.H.H.H.    H.H.H.H.H.H.H.",
"H.H.H.H.H.  H.H.H.H.H.H.H.H.H.H.H.H.      H.H.H.H.H.H.H.H.  H.H.H.H.H.H.H.H.H.H.    H.H.H.H.H.H.H.H.",
"H.H.H.H.H.H.  H.H.H.H.H.H.H.H.      H.H.H.H.H.H.H.H.H.H.      H.H.H.H.H.H.H.H.+   H.H.H.H.H.H.H.H.H.",
"H.H.H.H.H.H.H.    H.H.H.      H.H.H.H.H.H.H.H.H.H.H.H.H.H.H.H.      H.H.H.H.G H.H.H.H.H.H.H.H.H.H.H.",
"H.H.H.H.H.H.H.H.  H.H.        H.H.H.H.H.H.H.H.H.H.H.H.H.H.H.H.H.      H.H.Q ( H.H.H.H.H.H.H.H.H.H.H.",
"H.H.H.H.H.H.H.H.H.    H.H.H.H.H.H.H.H.H.H.H.H.H.H.H.H.H.H.H.H.H.H.H.H.o : H.H.H.H.H.H.H.H.H.H.H.H.H.",
"H.H.H.H.H.H.H.H.H.  - a H.H.H.H.H.H.H.H.H.H.H.H.H.H.H.H.H.H.H.H.H.H.H.r @ H.H.H.H.H.H.H.H.H.H.H.H.H.",
"H.H.H.H.H.H.H.H.H.  9 m o.H.H.H.H.H.H.; l ^ X.] | D 3 X H.H.H.H.H.H.5.B 1 H.H.H.H.H.H.H.H.H.H.H.H.H.",
"H.H.H.H.H.H.H.H.H.  4 V *.w.H.H.H.H.  - z / ..' } F 3 . H.H.H.H.H.f.7.C < H.H.H.H.H.H.H.H.H.H.H.H.H.",
"H.H.H.H.H.H.H.    H.H.H.H.u.k.H.H.= H.H.H.H.H.H.H.H.H.H.  H.H.H.g.H.H.H.H.    H.H.H.H.H.H.H.H.H.H.H.",
"H.H.H.H.H.H.H.    H.H.H.H.H.H.t.@.H.H.H.H.H.H.H.H.H.H.H.H.+.e.j.H.H.H.H.H.    H.H.H.H.H.H.H.H.H.H.H.",
"H.H.H.H.H.H.H.    H.H.H.H.H.H.q.u.H.H.H.H.H.H.H.H.H.H.H.H.H.r.#.H.H.H.H.H.    H.H.H.H.H.H.H.H.H.H.H.",
"H.H.H.H.H.H.  H.H.H.H.H.H.  e H.H.j.H.H.H.7 5 6 5 8 H.H.h.l.H.p ; H.H.H.H.H.H.    H.H.H.H.H.H.H.H.H.",
"H.H.H.H.H.H.  H.H.H.H.H.H.  H.H.H.f.8.H.K P I I I L Y H.u.H.H.H.    H.H.H.H.H.    H.H.H.H.H.H.H.H.H.",
"H.H.H.H.H.H.H.H.H.H.H.* $ H.H.H.H.H.$.&.6.i.a.a.p.9.2.%.H.H.H.H.H.% & H.H.H.H.    H.H.H.H.H.H.H.H.H.",
"H.H.H.H.H.H.H.H.H.H.H.h j H.H.H.H.H.{ 0.v.n.B.N.M.b.y.;.e H.H.H.H.x g H.H.H.H.H.H.H.H.H.H.H.H.H.H.H.",
"H.H.H.H.H.H.H.H.H.H.H.! ~ H.H.H.H.w E s.m.S.D.D.A.C.x.<.u # H.H.H.~ ! H.H.H.H.H.H.H.H.H.H.G.H.H.H.H.",
"H.H.H.H.H.H.H.H.H.H.H.|  .H.H.H.H.q R d.V.G.G.G.F.Z.c.1.y $ H.H.H. . .H.H.H.H.H.H.H.H.H.H.H.H.H.H.H.",
"H.H.H.H.H.H.H.H.H.H.H.|  .H.H.H.H.q R d.V.G.G.G.F.Z.c.1.y $ H.H.H. . .H.H.H.H.H.H.H.H.H.H.H.H.H.H.H.",
"H.H.H.H.H.H.  H.H.H.H.! ~ H.H.H.H.w E s.m.S.D.D.A.C.x.<.u # H.H.H.~ ! H.H.H.H.H.H.H.H.H.H.H.H.H.H.H.",
"H.H.H.H.H.    H.H.H.H.f j H.H.H.H.H.{ 0.v.n.B.N.M.b.y.;.e H.H.H.H.x g H.H.H.H.H.H.H.H.H.H.H.H.H.H.H.",
"H.H.H.H.H.H.  H.H.H.H.* $ H.H.H.H.H.$.&.6.i.a.a.p.9.2.%.H.H.H.H.H.% & H.H.H.H.H.H.H.H.H.H.H.H.H.H.H.",
"H.H.H.H.H.H.H.    H.H.H.H.  H.H.H.f.8.H.K P I I I L Y H.u.H.H.H.    H.H.H.H.H.H.H.H.H.H.H.H.H.H.H.H.",
"H.H.H.H.H.H.H.    H.H.H.H.  e H.H.j.H.H.H.7 5 6 5 8 H.H.h.l.H.p ; H.H.H.H.    H.H.H.H.H.H.H.H.H.H.H.",
"H.H.H.H.H.H.H.    H.H.H.H.H.H.q.u.H.H.H.H.H.H.H.H.H.H.H.H.H.r.#.H.H.H.H.H.    H.H.H.H.H.H.H.H.H.H.H.",
"H.H.H.H.H.H.H.H.  H.H.H.H.H.H.t.@.H.H.H.H.H.H.H.H.H.H.H.H.+.e.j.H.H.H.H.H.  H.H.H.H.H.H.H.H.H.H.H.H.",
"H.H.H.H.H.H.H.H.H.  + H.H.k.j.H.H.= H.H.H.H.H.H.H.H.H.H.  H.H.H.j.H.H.*   H.H.H.H.H.H.H.H.H.H.H.H.H.",
"H.H.H.H.H.H.H.H.H.  t [ z.H.H.H.H.H.  - z / ..' } F 3 . H.H.H.H.H.H.:.s O H.H.H.H.H.H.H.H.H.H.H.H.H.",
"H.H.H.H.H.H.H.H.H.> N =.4.H.H.H.H.H.H.; k ^ X.] | S 3 X H.H.H.H.H.3.3.U c H.H.H.H.H.H.H.H.H.H.H.H.H.",
"H.H.H.H.H.H.H.H.H.M Z A n 0 H.H.H.H.H.H.H.H.H.H.H.H.H.H.H.H.H.H.2 d T -.>.H.H.H.H.H.H.H.H.H.H.H.H.H.",
"H.H.H.H.H.H.H.H.H.J H i $     H.H.H.H.H.H.H.H.H.H.H.H.H.H.H.H.    X v ,.r.H.H.H.H.H.H.H.H.H.H.H.H.H.",
"H.H.H.H.H.H.H.H.* H.H.H.H.H.H.      H.H.H.H.H.H.H.H.H.H.      H.H.H.H.H.H.O.) H.H.H.H.H.H.H.H.H.H.H.",
"H.H.H.H.H.H.H.    H.H.H.H.H.H.H.      H.H.H.H.H.H.H.H.H.      H.H.H.H.H.H.H._ H.H.H.H.H.H.H.H.H.H.H.",
"H.H.H.H.H.H.  H.H.H.H.H.H.H.H.H.H.H.H.      H.H.H.H.H.H.H.H.H.H.H.H.H.H.H.H.H._ W H.H.H.H.H.H.H.H.H.",
"H.H.H.H.H.  H.H.H.H.H.H.H.H.H.H.H.H.H.H.  H.H.H.H.H.H.H.H.H.H.H.H.H.H.H.H.H.H.H.b , H.H.H.H.H.H.H.H.",
"H.H.H.H.  H.H.H.H.H.H.H.H.H.H.H.H.H.H.H.H.H.H.H.H.H.H.H.H.H.H.H.H.H.H.H.H.H.H.H.H.    H.H.H.H.H.H.H.",
"H.H.H.H.H.H.H.H.H.H.H.H.H.H.H.H.H.H.H.H.H.H.H.H.H.H.H.H.H.H.H.H.H.H.H.H.H.H.H.H.H.H.    H.H.H.H.H.H.",
"H.H.H.H.H.H.H.H.H.H.H.H.H.H.H.H.H.H.H.H.H.H.H.H.H.H.H.H.H.H.H.H.H.H.H.H.H.H.H.H.H.H.H.    H.H.H.H.H.",
"H.H.H.H.H.H.H.H.H.H.H.H.H.H.H.H.H.H.H.H.H.H.H.H.H.H.H.H.H.H.H.H.H.H.H.H.H.H.H.H.H.H.H.H.    H.H.H.H.",
"H.H.H.H.H.H.H.H.H.H.H.H.H.H.H.H.H.H.H.H.H.H.H.H.H.H.H.H.H.H.H.H.H.H.H.H.H.H.H.H.H.H.H.H.H.H.H.H.H.H.",
"H.H.H.H.H.H.H.H.H.H.H.H.H.` ` H.H.H.H.H.H.H.H.H.H.H.H.H.H.H.H.H.H.H.H.H.H.H.H.H.H.H.H.H.H.H.H.H.H.H.",
"H.H.H.H.H.H.H.H.H.H.H.H.H.H.H.H.H.H.H.H.H.H.H.H.H.H.H.H.H.H.H.H.H.H.H.H.H.H.H.H.H.H.H.H.H.H.H.H.H.H.",
"H.H.H.H.H.H.H.H.H.H.H.H.H.H.H.H.H.H.H.H.H.H.H.H.H.H.H.H.H.H.H.H.H.H.H.H.H.H.H.H.H.H.H.H.H.H.H.H.H.H."
};
