/* XPM */
static char *ground1700914695[] = {
/* columns rows colors chars-per-pixel */
"127 125 8 1 ",
"  c None",
". c #0C2535",
"X c #1C4348",
"o c #346467",
"O c #51534D",
"+ c #529550",
"@ c #96E69B",
"# c #FFF5E4",
/* pixels */
"                                                          . . .                                                                ",
"                                                         . . . .                                                               ",
"                                    . . .             ..... . .....                                                            ",
"       . . . .                     . . . . .        .................                                                          ",
"      . . . . .                     . .....        ....................                                   . .                  ",
"       . . ..... .                 . .......      .......................  . .        .......            . . .                 ",
"      . ......... .                 ......... . ........................... . .     ...........           ......  . .          ",
"       ... ..+....                 ......... . . .........X.X.X............. . .   .............         ......... . .         ",
"      ... ....... .               ............. .........X.X.X.X.X.....+.......   .............X.         ...........          ",
"       ... .......               .......................X.XXXXXXXXX.............................XX...     ............         ",
"        . .......       . . .   .........................XXXXXXXXXX.............XXXXX.X............XXXXX.  ..........          ",
"           ......      . ...............................XXXXXXXXXXX.........XXXooXXoooXXXXX.X.X.....XOX.X.X..........          ",
"            .... .      .............................X.XXXXXXXXXXXOX...X.XXXXXXXXXXXXXXXXXXXXXXXX..XXXOO.X.X.XXX.....          ",
"              . .      . .....................X.X.X.XXXXXXXXXXXXXXXOOXXXXXXXXXXXXXXXXXXXXXXXXXXOOOXXXXXOX.X...........         ",
"                        . ...........X.......X.XXX.XXXXXXXXXXXXXXXXXXXXXXXXXXXXXXXXXXXXXXXXXXXXXXXXXXXXX.X..............       ",
"    +                    ...........X.X.X.....XXXXXXXXXXXXXXXXXXXXXXXXXXXXXXXXXXXXXXXoXXXXXXXXXXXXXXXXXXX................      ",
"                        .............X.X.....XXXXXXXXXXXXXXXXXXXXXXXXXXXXXXXXXXXXXXXXXXXXXXXXXXXXXXXXXXXX................      ",
"         . .           .............X.X.X...X.X.XXXXXXXXXXXXXXXXXXXXXXXXXXXXXXXXXXXXXXXXXXXXXXXXXXXXXXXXX................      ",
"          . .          ..............X.X.....X...XXXXXXXXXXXXXXXXXXXXXXXXXXXXXXXXXXXXXXXXXXXXXXXXXXXXXOX.X.....X......... .    ",
"         . .    o  +  .......o....................XXXXXXXXXXXXXXXXXXXXXXXXXXXXXXXXXXXXXXXXXOXXX@XXXXXXO.X.X.X.X.X.........     ",
"          . .         ......o+o..................XXXXXXXXXXXXXXXXXXXXXXXXXXXXXXXXXXXXXXXXXXXXXXXXXXXXXXO.X.XOXXX......... .    ",
"                     ........o....................XXXXXXXXXXXXXXXXXXXXXXXXXXXoXXXXXXXXXXXXXXXXXXXXXXXXXOOXOOXXXX........ .     ",
"                    . ...............X.X..........XXXXXXXXXXXXXXXXXXXXXXXXXXXXXXoXXXXXXXXXXXXXXXOXXXXXXXXXXXXXXX.........      ",
"             . .   . ...............XXX.X..........XXXXXXXXXXXXXXXXXXXXXXXXXXXXo#oXXXXXXXXXXXXXXXXXXXXXXXOXXXXX..... ... .     ",
"            . . . . . .............XXXXXXX..........XXXXXXXXXXXXXXXXXXXXXXXXXXXXoXXXXXXoXXXXXXXXXXXXXXXXXXOO.X......           ",
"           . ... ... . ..........XXoXoXoooo..........XXXXXXXXXXXXXXXXXXXXXXXXXXXXXXXXXXXXXXXXXXXXXXXXXXXXXO.X......  . .       ",
"            ......... ..........XXoXoXooooooo......X..XXXXXXXXXXXXXXXXXXXXXXXXXXXXXXXXXXXXXXXXXXXXXXXXXXXXXX.X.....  ....      ",
"           ....................XXXXoXooooooooo..X.X.XX..XXXXXXXXXXXXXoooXXXXXXXXXXXXXXXXXXXXXXXXXXXXXXXXXXX.X...... ......     ",
"           ....................ooooooooooooooo...X.XXXXX...XXXXXXXoX.X.XoXXXXXXXXXXXXXXXXXXXXXXXXXXXXXXXXXXX..............     ",
"           .........X.........ooooooooooooooooXXX.X.XXXXXXXXXXXXXoXXXXX.XXXXXXXXXXX@XXXXXXXXXXXXXXXXXXXXXXXX..............     ",
"            .......X.X.....X.Xooooooooooooooo+XXXXXXXXXXXXXXXXXXoo.XXXXX.XXXXXXXXXXXXXXXXXXXXXXXXXXXXXXXXXXX.............      ",
"            ......XXX.....X.Xooooooooooooooo++XXXXXXXXXXXXXXXXXoooX.X.X...XXXXXXXXXXXXXXXXXXXXXXXXXXXXXXXXXX..............     ",
"             ....oooX......X.ooooooooooooooo+@+XXXXXXXXXXXXXXXoooooX.......XXXXXXXXXXXXXXXXXXXXXXXXXXXXXXXX.............. .    ",
"             ...XoooooX...X.Xoooooooooooooooo+@@+XXXXXXXXXXXXXooooooXX......XXXXXXOOOOXXXXXXXXXXXXXXXXXXXX................     ",
"              .XoXooooooXXXXXXoooooo+++ooooooo++++++XXXXXXXXXXooooooXXXX.......X...X.XOXXXXXXXXXXXXXXXOOX ............... .    ",
"              .XXoXooooooXXXX+ooooo++oooooooooo+++@@@@@++oooXXooooooXXXooXX...X.X...X.XXXXXXXXXXXXXXOOX  . ............. .     ",
"              XXXXoooooooooo+@ooooo+ooooooooooooooo+++oooo+++ooooooXoXXXXXooXX.X.X...X.XXXXXXXXXoXXXX.  . ...............      ",
"           . .XXXoooooooooooo@ooooo@oooooooooooooooooooooooooo+++oooXXXXXXXXXXX.X.X...XXXXXXXXXoX....    . .............       ",
"          . ..XXXoooooooooooooooooo@oooooooooooooooooooooooooooooooooXXXXXXXoo.X.X....XXXXXXXXXo.....     . .     .......      ",
"         . ....XoXooooooooooooooooo@ooooooooooooooooooooooooooooooooXXXXXXXXo.X.X.X...X.XXXXXXXo....               .....       ",
"        . .....oXoXoooooooooooooooo##oooooooooooooooooooooooooooooooXXXXXXXXXX.........X.XXXXXXX..... .           . ... .      ",
"         . ....XoXoooooooooooooooo####ooooooooooooooooo++oooooooooooXXXXXXXoX.........X.XXXXXXXXX..... .           . . . .     ",
"    .   . .....XXooooooo+oooooooo#######@@+++++ooooooo+@@@+ooooooooooXXXXXXoX......+...XXXXXXXXXXX.....    o        . . .      ",
"         ......XXooooooooooooooo############@++++oooo+++++@@@++oXXXoooXXXXoXo...........XXXXXXXXXX.... .       .               ",
"         ....X.XXXoooooooo+ooooo###############@@##++++++++++++XXXXXoXX@XXXXoX...........XXXXXXXXX.....                        ",
"        ....X.XXXXXooooooooooooo###############@@@@@@+@+++++++@XXXXXXXXXXXXXXX..X.........XXXXXXX......                        ",
"       ....X.XXXXXXooooooooooooo################@@@@@@+@++++++@oXXXXXXXXXXXXXXXX.X.........XXXXX.......                      . ",
"   . .......X.XXXXooooooooooooo+################@@@@@@@+++++++@ooXXXXXXXXXXXXXX.X...........X.X........                    .. .",
". . .........XXXXooooooooooooo+#################@@@@@@@@++++++#ooooXXXXXXXXXXOX.....o......X.X.....X... . . ... . .     . .... ",
" . ..........XXXXoooooooooo+@#########@#########@@@@@@@@++++++#@oooooXXXXXXXXO..............X.X.XXX.X.X. . ..... . ............",
". ...........XXXXoooooooooo@#@#######@#@#@@@#@#@@@@@@@@@++++++@@@@oooooXXXXXXX...+...+.......XXXXXXX..X.. . .O... .............",
" ....X.......XXXXooooo+oooo@@@@@####@#@#@@@@@@@@@@@@@@@+++++++@@@#@+++++ooOXXX............X.XXXXXXXX..X........................",
".............XXXXooooooooooo+@@@@@@@@@@@@@@@@@@@@@@+++++++++++@@@@#@++++ooXXXO...........X.XXXXXXXXX..XX......... ........... .",
" .............XXXXooooooooooo+@@@@@@@@@@@@oooooo+++++++++o+o+@@@@@@##+++ooXXXOX...........X.XXXXXXXX..o..................... . ",
"...............XXXXoooooooooo+#@@@@@@@@++ooooXXXXoooooooooo+@@@@@@####+ooXXXXXOX.X.......X.XXXXXXXXX.Xo.................... . .",
" ................XXooooooooooo#@@@@@++++ooooXXXXXXoooooooo+@@@@@@######ooXXXXXX.X.X.......XXXXXXXXXXXXoX.................... . ",
" .................oXoooo+o+ooo#@@@@@+++oooX.XXXXXXOooooooo@@@@@########ooXXXXXXX.X.X.....XXXXXXXXXX.XXXXX..................    ",
" ................X.o.XX+++o+o@#@@@@@++oooX...XXXXXXOOOooo@@@@@#########oOXXXXXXXX.X......XXXX#XXXX.XXXXXOX.................    ",
"  .........X......X.X.X++++@@#@@@@@@+oooXXX..X.XXXXXOooo@@@@@#########+oOXXXXXXX.........XXXXXXXXOOOXXXXXOOOX...XX........     ",
"  ....................++++@@@@@@@@@++oXXXXX...X.X.XXooo@@@@@@########++OOXXXXXX..........XXXXXXXOOOOOOXXXXXXOOOX ...XXX..      ",
"   ..................X++++@@@@@@@@++XX.X.X.....X.XXo+++@@@@@@########+oOOXXXXXO...........XXXXXOOOOOOOXXXXXXXX..  ....    . .  ",
"    ...............XXX++++@@@@@@+OOOX.X.X.....X.XX+++++@@@@@########++oOOXXXXXO..............XOOOOOOOOXXXXXXXX..         . .   ",
"    .........+....XXXX+++++@@@@OOOOO...X.X.....X.+++++@@@@@@########++OOOXXXXXOXXX.X.......XXOOOOOOOOOXXXXXXXX.           . .  ",
"   . .............XXXo+++++++++OOOOX..........XXo+++++@@@@@@#######+++OOOXXXXXXXXXX.X.....XXXOOOOOOOOOOXXXXXXX           . .   ",
"    . ....X......XXXXo+ooo+++++OOOX...........XXo+@+++@@@@@@@######+++OOXXXXXXXXXX.X......XXOOOOOOOOOOOOOOXOX.                 ",
"     . ..........XXXooooooo+++++X............XXXo++++@@@@@@@@#####+++OOOXXXXXXXXXXX.XOOOOOOXOOOOOOOOOOOOOOOXX                  ",
"    . ...........XXXooooooo+++++X............XXXo+++++@#@@@@@@####+++OOOXXXXXXXXXX.OOOOOOOOOOOOOOOOOOOOOOXOX.                  ",
"     . ..........XXooooo+oo+++++X....+....+..XXXo++++@@@@@@@@@###+++OOOXXXXXXXX.XXOOOOOOOOOOOOOOOOOOOOOXXXXX.       o          ",
"        .........XXXooooooo+++++X............XXXo++++@@@@@@@@@@@#+++OOXXXXOOXX.X.OOOOOOOOOOOOOOoooooOOXXX..X     o      .      ",
"        .........XXoooooo+o+++++.............XXoo+++@@@@@@@@@@@#+++OOXXXXXX...X.XOOOOOOOOOOOOOooooooooXX...X                   ",
"        ..........Xooo+oooo+++++..............Xoo++++@@@@@@@@@@#++OXXXXXoX.....XOOOOOOOOOOOOOoo+ooooooXX...X.                  ",
"        .........XXooooooooo++++.......X.......oo+++@@@@@@@@@@#+XXXXXXXoX.......OOOOOOOOOOoo+++oooooooXX....X.   ....          ",
"        ..........Xoooooooo+o++O.........@.....Xo+++@@@@@@@@@#XXXXXXXXoX........OOOOOOOOOoooooooooooooXX.......XXX..XX. .      ",
"     . ..........XXooooooooo++OO................X+++@@@@@@@@@XXXXXXXXXo.........OOOOOOOOoooooooooooooooooX.............. .     ",
"    . ............ooooooooo+o+OO.X...............o++@@@@@@@@XXXXXXXXXXX.........OOOOOOOoooooooooooooooo...X..............      ",
"     .............oooooooooo++OXX.X..............o++@@@@@@@@XXXXXXXXXXX..........OOOOOooooooooooooooooo...................     ",
"    ............XXooooooooooo+XXXX....@..........oo+@@@@@@@@XXXXXXXXXXXX...X.X.X.OOOOOooooooooooooooooo..................      ",
"     ..........XXooooooo++ooo+XXX.X..............ooo@@@@@@@#XXXXXXXXXXXXXX..X.X.XOOOOOooooooooo++oo++ooo..................     ",
"    ..........XXXoooooo+@++ooXXX.X...............oooo@@@@@@#+XXXXXXXXXXXXXXX.XXX.XOOOOoooooooo++XXXXooooX..................    ",
"    ........X.XXXooooo+@++++XXXXX...X.X...........oooo+++++#@XXXXXXXXXXXXXXXX.XXX..OOOooooooo+ooXX..Xooo....................   ",
"   ........X.XXXXooooo++++++XXXXXX.X.X.X...........oooo+++++@OXXXXXXOXOXXXXX.X.X...XOOoooooooooX......X......................  ",
"    ......X.X.XXXooooo++@+++XXXXXXXXXXXX.....+.....Xoooo++oo@OOXXXXOXOXOXXXXX.X.X...XXOooooooo................X............. . ",
"   ........X.XXXXooooooo+@+++XXXXXX+XXXX...........XOooooooo+OOXXXXXOXOOOOOOXXXX....XXXooooooX............................. .  ",
"    ......X.XXXXXoooooooo@++++XXXXXXXXXX......X....XOOooooooOOOXXXXOOOOOOOOOOOXXX...XXoXooooo.............O................. . ",
"    .......X.XXXXoooooooo@++++oXXXX..XXX.....X.X...XOOooooooOOXXXXOOOOOOOOOOOOOXXX.X.oXooooo+.......+.........X............ .  ",
"     .......XXXXXXooooooo++++oX.......XX......X....OOoooooo+OXXXXOOOOOO+O+O+++++X.X..ooooooo+o............................     ",
"      ......XXXXXXXooooo.o.X......... ..X..........OOoooooo+XXXXXOOOOO+O+++++++++X.XXooooooo+oX............X...............    ",
"     . .....XXXXXXXX..X.o.X. ....... . .X..........OOoooooo+XXXXOOOOOOO++++++++++.X.XXooooooo+oX.... .....................     ",
"      . .....XXXX.. ...X.X. .  ....   . ..........OOooooooooXXXXOOOOOOO++++++++++XXXXXXo+oooooooXX. . ....................     ",
"     . . ....... . . .   . .           ...........OOoooooo+oXXXXOOOOOO+++++++@@@@+XXXXX+o+oooooooo . . . .................     ",
"      . . .   . . . .           . .   . X..O......OOooooo+oXXXXXOOOOOO+++++@@@@@@@@XXXX@@+oooooooo. . . ..................     ",
"       . .     . .             . ... . .X........OOOooooooXXXXXXOOOOOO+++++@@@@@@@@+XX@@@+oooooooo     ..................      ",
"                                ........X.......XOOOoooooXXXXXXXXOOOOO++++@@@@@@@@@@+@@@@ooooooooo      .................      ",
"                               ........X....O...OOOOOoooOXXXXXXXXOOOOOO+++@@@@@+ooo@@@@@+ooooooooo.    ........O..........     ",
"                   .   X        ................OOOOOoooOXXXXXXXXXOOOO++++@@@+oooooo@@@+oooooooooo..  .....................    ",
"                                ................OOOOOOoOOOOOXXXXXXXOOOO++++@+oooooooo++ooooooooooo... ......................   ",
"                               ..........O.......OOOOOOooOOoOXXXXXXXOO+++++@ooo#oooooo+oooooooooo.... ......................   ",
"                   X   .      ..........O@O.....X.XOOOOOOOOoooXXXXXXOO++++++ooooooo+ooooooooooooo.... ......................   ",
"                              ...........O.....X.XXXXXOOOOOOOoXXXXXXOOO+++++oooooo+#+ooooooooooo..... ..................... .  ",
"                             .....X.X...........X.X.XXOOOOOOOOXXXXXXOOO+++++ooooooo+ooooooooooo.....  .................... .   ",
"                             ....X.X...........X.X.XXXXOOOOOoOXXXXXOOOOO+++++oooooooooooooooo......    .................. . .  ",
"           X               . .....X.X...........X.X.....XOOOOXXXXXXXOOO+O+++o+ooooooooooooX.......     ................        ",
"                          . .....X.X........+..........X.XXXXXXXXXXOOOOO+++o+oooo@oooooooo....... .  .................         ",
"                           . .........................X.X.XXXXXXXXXOOO++++++o+ooooooooooo.........  ..................         ",
"                          . . .........................X.X.XXXXXXXOOO++++++++oooooooooooo........ . ......O...........         ",
"                           . ...........................X.XXXXXXXXOOO+++++++oooooooooooo.X...... . ...................         ",
"                            .  ........................XXXXX.XXXXOOO+o++++ooooooooooooo.o........  ..................          ",
"             X                  ......................XXXXX.X.XXXOOOo+o++oXX...XXXX..X.o.X......   ............... . .         ",
"                                 ............X.....X.XXXXXXX.XXXOOooooOXXXX...........X.X........  .............. . .          ",
"                                   .........X.XX..X.XXXXXXXXXXXXOOOOOXXXXX........................  ............ .             ",
"                                    . .......X.XX..X.XXXXXXXXXXXOOOOX.X...........O...............   ...........               ",
"                                   . .......XXXXXX.XXXXXXXXXOOOooOOX...........O..................     .........               ",
"      +             . .           . . .....XXXXXXXXXXXXXXXXOX.X.XX.......@.......................     .........                ",
"                   . . .           . .....XXXXXXXXXXXXXXXXXX...X..................o.......o......    . .......                 ",
"                    . . .           . ....XXXXXXXXXXXXXXXXXXX....................................     .....           . .      ",
"                   . . .               ....XXXX...XXXXXXXXXX.................. .................     . . .           . .       ",
"                      .                 ...........XXXXXX.................. . . ...............       . . .    .    . . .      ",
"                                       . ............XX..................... .      ..O.......         . .         . . .       ",
"                                        ................................... . .      ........ .    .                . . .      ",
"                                       ............................... .              ........         O           . . .       ",
"                                        ... ........... . ........... .                   .....          .                     ",
"                                       . . . . .     . . ............. .                 . . . .           .                   ",
"                                  . .   . . .         . . ........... .     o             . . .                                ",
"                                   .                       ........                                     .                      ",
"                                  . .                       ......              O                                              "
};
