/* XPM */
static char *hole_enemy1700914696[] = {
/* columns rows colors chars-per-pixel */
"129 97 12 1 ",
"  c None",
". c #0C2535",
"X c #2A3034",
"o c #5B2E4A",
"O c #89362E",
"+ c #D0515D",
"@ c #AAAA6D",
"# c #E99766",
"$ c #7AAE99",
"% c #BBDB87",
"& c #FECEC7",
"* c #FFF5E4",
/* pixels */
"                                                                                                                                 ",
"                                                      ..............       .......                                               ",
"                                                  ......................   ...........                                           ",
"                                               ..............................  .........                                         ",
"                                             ....................................  .......                                       ",
"                                           ...............X.X....X.X.XXXXXXX................                                     ",
"                                 ....    .............XXXXXXXooXXXXXXXXXXXXXXX.......   .....                                    ",
"                                .....  ............XXXXXXXXooXXXXXXXXXXXXXXXXXXXXXXXXX..   ..                                    ",
"                              .....  ............XXXXXXXXXXXXooXXXXXXXXXXooXXXXXXXXXXX...                                        ",
"                             ..... ............XXXXXXXXXXXoooooooXXXXXXXXXXooXXXXXXXXXXX..                                       ",
"                            .................XXXooooooOOOOOOOOOOOOOooXXXXXXXoooooXXXXXXXXX.                                      ",
"                           ................XXXOoooooOOOOOOOOOOOOOOOOOOOoXXXXXXoXXoXXXXXXXXX.                                     ",
"                           ...............XXXOoooO++++++++OOOOOOOOOooooooooXXXXoXXoXXXXXXXXXX.    ....                           ",
"                           .. ...........XXXOooO+++++OOooooooooooooOOOOOOooooXXoXXXXXXXXXXXXXX.   ......                         ",
"                             ..........XXXXOooO+OOOOoooooOOOOOOooooooOOOOOOOOooooXXXXXooXXXXXXX.  .......                        ",
"                            ......X...XXXXOOoOOOOOoooOOOOOOO+++++++++OooOOO+++OOOXXXXXXXooXXXXXX.  .......                       ",
"                            ....XX.X.XXXXXOoOOOOooOO+++++++++++++++++++OOOooOOO+++OXooooXXX.XXXX... .......                      ",
"                        .. ....XXXX..XXXXOOo+OOoO+++++++++++++++++OOOOOO+++OOOOOO+++OoooooXXX.X..... ......                      ",
"                       .......XXXXX.XXXXXOO+OOO+++OOOoooooooooOOOOOOOOOOOOO++OOOOOOO+OooooooXX..............                     ",
"                       XX....XXXXX.ooooXOOO+OO++OO+++++OOOOooooooooOoooOOOOOOOOOOOOOOOOooooooXX...X.........                     ",
"                      XXX...XXXXXXoooooXOO+OO+O++###++++++OOOOOOOOOOOOOoooOO++++OOOOOOOOooooooXX...X....  ..                     ",
"                     .XX...XXXXXXoooooXoOO+OOO++##&&&&##++++OOOOOOOOOOOOOOO++++###+OOOOOOooooooXX.X.XXXX.                        ",
"                    .  ...XXXXXXXooooXXOOOOOO++#&&&&&&&##+++++OOOOOOOOOOOOOO+++#####OOOOOOooooooXX.XXXXXX.                       ",
"                      ....XXXXXXXoooXXoOOOOO++#&&&&&&&&##+++OOOO++OOOOOOOOO++++++####oOOOOOoooooXX.XXXXXXX.                      ",
"                     .....XXXXX.XoooXOoOOoO++#&&&&&&&&#+oooooooooOOO++OOOOO+++++++###+oOOOOOoooXXXXXXXXXXXX.                     ",
"                     ..XXX.XX..XXXXXXOoOoO++##&&&&&&&+oooooooooooooooO++OOOOOO+++++##+OooOOOOooXXXXXXXXXXXX.                     ",
"@                   ...XXXX....XXXXXOoOoOO+##&&##&&&+ooooooooooooooooooOOOOO++OO+++++++oooOOOoXXXXXXXXXXXXX..                    ",
"@              ... ...XXXXX...XXXXXoOoOoO+###&#####+oooooooooooooooooooooOOO+++OOO+++++OooOOOOXXXXXXX.XXXXXX..                   ",
"@             .... ..XXXXX....XXXXoOoOoo++##&#####+OoooooooooooooooooooooooOO+++OOOOOOOOooOOOOooXXXXXX.XXXXX..                   ",
"@             ........XXXX...XXXXooOoOoo+###&###+#+ooooooooooOOOOOOOOooooooooO+++OOOOOOOOoOOOOOooXoXXX.XXXXXX.. ..               ",
"%            .... ...XXXXX...XXXXooOoOoO+##&###+#+OoooooO++OO........OOOooooooO+++O++OOOOoOOoOOooXXoXXX.XXXXX.. ...              ",
"%            ... ....XXXX...XXXXoooOoOoO###&####++OooOO++O..............OOooooo+++++++OOOOOOoOOoXXXoXXX..XXXX... ..              ",
"%           .... ....XXXX...XXXXoooOoOo+########+OOOOOOO..................OOoooO+++O+++O+OOOOoOoXXXXoXXX.XXXXX.. ...             ",
"%           ..........XX...XXXoooooOOOO+########+OOOOO......................Oooo++++O+++O+OOOoOoXXXXoXXX.XXXXX... ..             ",
"%           ... .....X.....XXooooOOooOO##&######+OOOO........................+ooO+++O+++O+OOOooooXXXooXXX.XXXX... ..             ",
"@           ... ......XX...XooOOOooO+++#&######++OOO..........................+oo+++OO+++O+OOooooXXXooXXX.XXXX... ..             ",
"@           ... .....X.....XoooooOO+++##&+####+++OO............................+oO++OO+++O+OOooOooXXXooXX..XX.X.. ..             ",
"@           ..............XoooOOOOO+++##+++##++++O..............................OO+++O++++++OOoOooXXXooXX....X......             ",
"            .. ...........ooOOOOOOO++++++++#+O++O................................OO++OO+++++OOoOooXXXXoXXX........               ",
"               ..........oOOOOOOO+++++++++#+OO++O................................OO++OO+++O+OOOOoooXXXoXXX........               ",
"              ..........OOOOOO+++++++++++++OOO++..................................O++OO+++O+OOOOoooXXXoXXX........               ",
"            ....ooOOO+++++++++++++++++++++OOOO++..................................OO+OO+++O++OOOooOOOoooXX........               ",
"       ...ooooOOOOOOOOOO++++++++++OOOOOOOOOOO++O..................................OO+OOO+##+OOO+ooOOOOOOOOOoo..........          ",
"      ...ooooXXOOOOOOOOOOOOOOOOOOOOOOOO++++++++....................................O++###++OO+++oooOO+++OOOOOOOoo........        ",
"     ..ooooXXO++++########+++++++++++#####+++++...................................#####+++++++++OOOOoooOOOOOOOOOOOOOoo......     ",
"   ..oOOOOOO++++##++#########++++++OOOO+###################################&&&&#####++++++######++##########+++++++++OOOO.....   ",
" .ooooOOOOOO++##++##++##########+++OOOOOOO+++################################+++++++++++####++++++++++++++++++++++####++++++OOO..",
" ..oooooOO++++++++++++++++++++OOOOO++OOOOOOOOO++++++OO+++++#########+++++OOOOOOOO++#######&++++++++++++++++++############+OOOOO. ",
"      ...oooOOOOOOOOOOOOOOO++##++OOOOO++OOOOOOOO+++OOOOOOOOOO+++OooooooOOOO++##########++&++++O+O+OOOOO+O++++++++OOOOOOOXXX...   ",
"           ...oooOOOOOOOOOOOOOO+++++OOOO++++++++++++OOOOOOO+++++++++OO++OOOOOOOOOOOOO+++&+++OOOOOOOOOOOOOOOOOOOXXXX.......       ",
"               ....oooOOOOOOOOOO++OO+OOOOO++XXOOXXX..XXXXXXXX......................OXX++&+++OOOOOOOOOOOOOOOOOXXXX......          ",
"               ...........XOOOOOO+OOOOOOOOO+OXOOOO..OO..........XXX..XX...XX..XXOOOOXX++&#++OOOOOOoOOOOOOOXX.........            ",
"                ..........XOooooo++OOOoooOO++OXO..OO..XX...........XX.......XX....O.X&&+&&+#+OOOO+oOOoooOXXX.......              ",
"                ..........XOooooo++OOOooooOO++XO..................................O.#&&#&&###OOOO+OOOoooOXXX......               ",
"                ..........XOOoooo++OOOOOoooOO+OO..................................O##&&#&&##&OOOO+oOooooOXX...XX.                ",
"                ...........OOoooo++OOOOOOOOoOO+O+................................O###&&&&&##&&OOOOoooooOOX....XXX                ",
"                 ..........OOooooO+OOOO+O+++OO+O+................................###&&#&&&##&&OOOOoOoooOO.....XXX                ",
"                 ..........XOooooO++OOO+O+++OOOOO+..............................####&&#&&&#&&+OOOOoOOooOO.....XX.                ",
"                  .........XOOoooO++OO+O+++++OOOOO+............................####&&#&&&##&#+OOOoOOOooOo....XXX                 ",
"                  ..........OOXXoOO+OO+O+++++OOOOO.O..........................#####&&&&&&##&#OOO+oOOOoOOX....XXX                 ",
"                   .........XOXXoOO+OOO+++++++OO+O..O........................O####&&&&&&##&##OOO+OOOooOoX....XXX.                ",
"                   ..........OoXXOOOOO+++++++++OO++..O......................O#####&&&&&&##&#+OOO++OoooOXo....XX...               ",
"               .   ..........XOXXOOOO+++++++++++OO++..++..................OO#####&&&&&&##&##+OO+++oooOoXo...XXX...               ",
"              . ... ..........OoXXOOO++++++++++++OO++O..++..............OOoo####&&&&&&&#####OOO++ooooOXo....XX....               ",
"               .... ..........XoXXoOO++++++++++#++OO++OOOO+++........OOOXXoO###&&&&&&&#####+OOO+OooXOXXo....XX ...               ",
"              ...... ..........XoXXoo++++++++++++##++++OOOO..+++OOOOO.....OO##&&&#&&&######+OO+OooXXXXX....... ...               ",
"              ...... ..........XXXXXoo#+++++#+++++++####++O............+++++&&&&#&&&##+####+O+OoooXXXXX.X.... ...                ",
"               ...... ..........XXXXXoO##++++##+++++++######OO....OOO+++++&&&###&&&#++####++OOoooXXXXoo.X.... ...                ",
"                ..... ......X....XXXXXO###+++++#####++##########++++++++&&#####&&#+++####+++ooooXXXXoooX.... ...                 ",
"                  ...  ....X.XX..XXXXXoO###++++++#########++++++++++##&&########+++#####+++ooooXXXXooooX.... ...                 ",
"                       .....XXXXX.XXXXXOO###+++++++######++++++++++#########&&#########+++ooooXXXXooooo.... ...                  ",
"                        ...XXXXXXXXXXXXoOO+++##++++++++#######++##########&&##########+++ooooXXXXoooooX.... ...                  ",
"                         ..XXXXXXXXXXXXoOOO++++####+++++++++++++++++++##&&###########+++ooooXXXXXooooo....                       ",
"                          .XXXXXXXXXXXXXOOOO+++++#####+++++++++++++##&&&###########+++oooooXXXXXooooo.....                       ",
"                          ..XXXXXXXooXXXOOOOO+++++########++++++++++###########+++OOoooooXXXXXXXoooo.....                        ",
"                          ...XXXXXXoooX.XOOOOOO+#################++++#########OOOOOooooOXXXXXXXXooo......                        ",
"                          ....XXXXXoooo..OOOOOOOO#########++++++++++++++++++OOOOOOooooOXXXXXXXXXX.......                         ",
"                           ...XXXXXooooo..OOOOOOOOO##########++###++++++++OOOOOOOOooOOXXXXXXXXX........                          ",
"                              .XXXXXoooooX.OOOOOOOOOO+#####+++++++++++++OOOOOOOOO++OXXXXXXXXX.........                           ",
"                                XXXXXoooooX..OOOOOOOOOO+++++++++++++++OOOOOOO++++XXXXXXXXXX...........                           ",
"                                 XXXXXoooooX...OOOOOOOOOO++++++++++OOOOOOOOOOOoXXXXXXXXX.....X....... ...                        ",
"                                  XXXXXooooXX.....oooooooooOOOOOOOOOOOOOOOOOoXXXXXXX.......X........ ....                        ",
"                                   XXXXXXXXXXX.....oooooooooOOOOOOOOOOOOOOoXXXXXX...XXXXXXX..............                        ",
"                                    .XXXXXXXXX........XXXXXXXXooooooooooXXXXXX...XXoooXXXX..............                         ",
"                                      .XXXXXXX.........XXXXXXXXXXXXXXXXXXXXXXXXooooooXXXX..............                          ",
"                                    ..  ..XXX.X..........XXXoooooooooooooooXXXXXXXXXXXXX.......  .....                           ",
"                                    .........X.............XoooooooooooooooXXXXXXXXXXX...............                            ",
"                                    .........................XXoooooooooooXXXXXXXXXX......... ......                             ",
"                                     ........  ..................X.XXXXXXXXXXXXX...........  ......                              ",
"                                       ........  ........................................    .....                               ",
"*                                        ........  ....................................        ..                                ",
"*                                           .....    ................................                                            ",
"$                                                      ...........................                                               ",
"$                                                          ................... .                                                 ",
"$                                                                 . . ... .                                                      ",
"$                                                                                                                                ",
"*                                                                                                                                "
};
