/* XPM */
static char *home_open1700914696[] = {
/* columns rows colors chars-per-pixel */
"67 64 10 1 ",
"  c None",
". c #213623",
"X c #4D653F",
"o c #529550",
"O c #43749B",
"+ c #7AAE99",
"@ c #3BBFD4",
"# c #6AACF0",
"$ c #96E69B",
"% c #FFF5E4",
/* pixels */
"                           $$$$$$$$%%%%                            ",
"                       $$$$$$$$$%%%%%%%%%%%                        ",
"                     $$$$$$$$$%%%%%%%%%%%%%%%                      ",
"                   $$$$$$$$$$%%%$$%%%%%%%%%%%%%                    ",
"                 $$$$$$$$$$$$$$$%%%%%%%%%%%%%%%%%                  ",
"               $$$$$$$$$$$$%%%%%%%%%%%%%%%%%%%%%%%%                ",
"              $$$$$$$$+$+$%%%%%%%%%%%%%%%%%%%%%%%%%%               ",
"             $$$$+++++++++%%%%%%%%%%%%%%%%%%%%%%%%%%$              ",
"           $$$$$$++++++++$%%%%%%%%%%%%%%%%%%%%$$%%%$$$$            ",
"          $$$$$$$++++o+++$$%$$%%%%%%%%%%%%%%$$%%%%$$$$$$           ",
"         $$$$$$$oo$$$$%%%%%%%%%%%%%%%%%%%%%%%%$$$+$$$$$$$          ",
"         $$$$$$$o$+$o$$%%%%%%%%%%%%%%%%%%%%%%%%%+++$$$$$$          ",
"        $$$$$$$+$$+o%%%%%%%%%%%%%%%%%%%%%%%%%$+++$+$$$$$$$         ",
"       +$$$$$$$+$o+%%%%%%%%%%%%%%%%%$%%%%%%$++$%%%%$$+++++$        ",
"      ++$$$$$$+$o++%%%$$%%%%%%%%%$$$++++%%%%%%%%%%%%+oo++o+$       ",
"      %%%%%o+++$++$$$$%%%%%%%%%%%%%%$$$%%%%%%%%%%%%%%o++++o$       ",
"     %%%%%%%o++$++$$%%%%%%%%%%%%%%%+$$%%%%%%%%%%%%%%%%++++o+$      ",
"     %%%$$%%$++$$$+$$%%%%%$%%%%%%%$$+$%%%%%$$%%%%%%%%%%+++++$      ",
"    %%%%%%$$$$$%%++++$%%%$$$%%%%%$$$++$$$$$$$$$$%%%$%$$$+++$$$     ",
"    %%%%%%%%%%%%%%$$%%%$$$$$++++oo+++$$$$$$$%%%%%%%%%%%$$%%%%%     ",
"   %%%%%%%%%%%%%%%%%$$%%$$+%%%+++++++$$$$$$$$%%%%%%%%%%$%%%%%%$    ",
"   %%%%%%%%%%%%%%%%%%%%%%o%%%%%+$+++$%$%%%%%%$$%%%%%%$$%%%%%$$$    ",
"  %%%%%%%%%%%%%%%%%%%%%%%%%%%%%$+$ooo+%%%%%%%%%%%%%%%%%$$%%%%%%%   ",
"  %%%%%%%%%%%%%%%%%%%%%%%%%%%%%$$++ooo%%%$$%%%%%%%%%%%%%%%%%%%%%   ",
"  %%%$$%%%%%%%%%%%%%%$$$$$%%$$%$$$+++$$$$%%%%%%%%%%%%%%%%%%%%%$$   ",
"  %%%%%$$%%%%%%%%$$$$$$$$$$$%%%$$$++++$%%%%%%%%%%%%%%%%%%%%%$$%%   ",
"Oo%%%$$%%%$%%%%$$%%$$$$$$$$$$%%$+++++++%%%%%%%%%%%%%%%%%%%%%%%%%%  ",
"Ooo%$%%%%$++%%%%%$$$$$$$$$$$$$%++o++++$$%%%%%%%%%%%%%%%%%%%%%%%%%  ",
"Oooo$%%$++$$$+++++$$$+$$$$$%%%$$oo++$$$+$%%%%%%%%%%%%%%%%%%%%%$++  ",
"Oooo$$$$$$$$$$$$++$$$$o$$$$$$++oo++++$$$o+$$%%%%%%%%%%$$$$$$ooo++  ",
"Oooo$$$$$$$$$$$$$$+$$$o++$$$%%+o++++$$$$o$$$+++++++++++o$$$ooo+++  ",
"@ooo$$$$$$++$$$$$$+++++$$$$$$+++++++++++ooooooo++++++ooo++ooooo++  ",
"@ooo$$$$$$+++++$$$+$$$$$$$$$$+o++++++++oooooooooo++o$$$+++XXXo%%%  ",
"@ooX$$$$$$++++oo+++$$$$$$$$$$$o++++$$$++XXXooooo++++$$$o$$$$%%%%%  ",
"OooX$$$$$$+++++++++$$$$$$$$$$$X+++$$$$++XoooooXXXooo$$$o$$$%%%%%%  ",
"OooX$$$$$$$$++++$$$$$$$$$$$$$$Xoooo$oXXXXoooooooooooooooo+$$$$%%$  ",
"OooXo$$$$$$++++++$$$$$$$$$+++$Xooo$$$$oooo$$$$$$$$$oooo%%$$$$$$%%  ",
"OooXo$$$$$$$$$$$$++$$$$$+ooo$oXooooooo+$$$$$$$$$$$$$o%%$$$$$$$%%%  ",
"  oXX$$$$$oooo$++$$$$$$$+$$$$oXoooooo$$+ooo+$$$$$%%$$$$$$$$$$$%%   ",
"  oXXooooooooo$$$$$$$$$$+$$$$oooooooo$$oo%%%%%%%$$$$$$$$$$$$$%%%   ",
"  ooXXoooooooo$$$$$$o$$$+$$$++oooooooo%%%%%%%$$$$$$$$$$$$$$$%%%%   ",
"  ooX.oooooo$$$$$$%%%o$$++++++XXXXXX%%%%%%%%%%%%$$$$$$%%$$%%%%%%   ",
"   oX.Xooooo$$$$$%%%%%XXXXX%%%%%XXX$%%%%%%%%%%%%%%$$%%$$%%%%%%%    ",
"   oXXXXooooo$$$%%%%%%%XXX%%%%%%%X$%%%%%%%%%%%%%%%%%%%%%%%%%%%%    ",
"    XX.Xooooooo%%%$$%%%%o%%%%%%%%%%%%%%%%%%%%%%%%%%%%%%%%%%%$$     ",
"    XX.X.oooo%%%$$%%%%%%%%%%%%%%%$$%%%%%%%%%%%%%%%%%%%%%$$$$$$     ",
"     XXX....XXX%%%$$%%%$%%%%%%%%%%%$$$%%%%%%%%%%%%%%%%$$%%$$$      ",
"     XX.......XX$$$$$$$X$$$$%%%$$$$%%%%%%%%%%%%%$$$$%%%%$$$$$      ",
"      X.......XX$$$$$$Xoo$$$$$$$$$$$$%%%%%%%%$$$$$%%$$$$$$$$       ",
"      X..XXX...XXX$$$Xoooo$$$$$%%$$$$$$$%%%XXXXX$$$$%%$$$$$#       ",
"       #.XXXXX..XXXXXoooooo%%%%$$$$ooo...XXXXXXXX$$$$$$$$$#        ",
"        #XXXXXXX....Xoooooooo$$%%$ooX....XXXXXXXXX$.....%#         ",
"         #XXXXXXXX....ooooooX.%%%.X......XXXX...........#          ",
"         ##XXXXXXXX......XX..XX........................##          ",
"          ##XXXXXXX....XXXXXX.....................X.XX##           ",
"           ##XXXXXX............................XXXXXX##            ",
"             #XXX...........................XXXXXXXX#              ",
"              ##.....................XX.XXXXXXXXXX##               ",
"               ###X............................X###                ",
"                 ####X.......................X###                  ",
"                   #####XXXXXX.X..........XX###                    ",
"                     #######XXX.X...XXXX#####                      ",
"                       ####################                        ",
"                           ############                            "
};
