/* XPM */
static char *home_closed1700914696[] = {
/* columns rows colors chars-per-pixel */
"66 66 10 1 ",
"  c None",
". c #1D362F",
"X c #346467",
"o c #AD744E",
"O c #529550",
"+ c #C2A85A",
"@ c #49CBA4",
"# c #6AACF0",
"$ c #B3B7BC",
"% c #C4E6F1",
/* pixels */
"                       ####################                       ",
"                           ############                           ",
"                           @@@@@@@@@@@@                           ",
"                       @@@@@@@@@@@@@@@@@@@@                       ",
"                     @@@@@@@@@@@@@@@@@@@@@@@@                     ",
"                   @@@@@@@@@@@@@@@@@@@@@@@@@@@@                   ",
"                 @@@@@@@@@@@@@@@@@@@@OOOOOOO@@@@@                 ",
"               @@@@@@@@@@@@@@@@@@@@@@O@O@@@@O@@@@@@               ",
"              @@@@@@@@@@@@@@@@@@@@@O@O@O@@@@@O@@@@@@              ",
"             @@@@@@@@O@@@@@OOOOOOXXXOOOOO@@@@@O@@@@@@             ",
"           @@O@@@@@@O@@@@@O@@@@@@X#X@@@@O@@@@@@OOOOO@@@           ",
"          @@@@O@@@@O@@@@@O@@@@@@@X#X@@@@O@@@@@@O@O@O@@@@          ",
"         @@@@@O@@@@O@@@@O@@@@@@@@XXX@@@@O@@@@@@OOOOOOO@@@         ",
"         @@@@@OOOOO@@@@@O@@@@@@@@O@@@@@@@@@@@@O$$$$$$O@@@         ",
"        @@@@@O@@@@O@@@@O@@@@@@@@@O@@@@@OOO@XXX$$$$$$$OO@@@        ",
"       @@@@@O@@@@@OOOOOOO@@@@@@@@@@@@@@O@O@X#X$$$$$$$$XXOOO       ",
"      @@@@@O@@@@@@OOOOOOOO@@@@@@@@@@@@@O@O@X#X$$$$$$$$$$$$OO      ",
"      @@@@OOOOOO@@@OOOOOOOO@@@@@@@@@@@@O@O@X#X$$$$$$$$$$$$OO      ",
"     @@@@@OOOOOOOOO@@OOOOOOO@@@@@O@@@@@OOO@XXXOOOOOO$$$$$$OOO     ",
"     @@@@@OOOOOOOOOOO@@OOOOO@@@@@O@@@@@OOO@OO$$$$O$O$$$$$OOOO     ",
"    OO@@@@OOOOOOOOOOOOO@@OOO@@@@@O@@@@OOOO@OO$$$$O$O$$$OOOOXOO    ",
"    OOO@@@@OOOOOOOOOOOOOO@OO@@@OOOOOOOOOOO@OO$$$$X$X$$$XOOOXOO    ",
"   OOOOO@@@OOOOOOOOOOOOOOO@@@@@OOOOOOOOOOO@OOOXXXXXX$$$XOOOXOOO   ",
"   OOOOOO@@@OOOOOOOOOOOOOOO@@@@O@@@@@@OOOO@O$$$X$X$X$$OXOOOXXOO   ",
"  OOOOOOO@OO@OOOOOOOOOOOOOO@@@@O@@@@@@OOOOO$$$$O$O$OXXXXXOXXXOOO  ",
"  OOOOOOO@OOOO@@OOOOOOOOOOO@@@@O@@@@@@OOO@O$$$$O$O$XXXOOOOOXXOOO  ",
"  OOOOOOO@OOOOOOO@@@@@@@@@@@@@@OOOOOOOOOO@O$$$$OOXXXXOOOOOXXXOOO  ",
"  OOXOOO@@@@OOOOOOOOOOOOO@@@@@@@@@@@@@@@@O$$$$$OOOOXOOOOOOOXXXOO  ",
"+XXXXXXXXXOXXXXOOOOOOOOOOOOOOOOOOOOOXOXXXX$$$$OOOOOXOOOOOOOXXXOOO%",
"+$$$$OOXXXXXXXXXXXXXXXXXXXOOOOOOOOOOOOOOXX$$$OOOOOOXOOOOOOXXXXOOO%",
"+$$$$$$$$OOXXXXXXXXXOOOOOOOOXXXOOOOOOOOOXX$OXXOOOOOXOOOOOXXXXXXOO%",
"+$$$$$$$$$$$$OOOXXXXOOOOOOOOOOXXXXOOOOOOX$OOOOOOOOOXOOXOXXXXXXXOO%",
"+$$$$$$$$$$$$O$$$$XXXOOOOOOOOOXOOOOOOOOO$OXOOOOO@@@XOOXXXXXXXXOOO%",
"+$$$$$$$$$$$$O$$$$$$OOOXXXXOOOXOOOOOOOO$$XOOOOO@@@@XOOXOXXXXOO@@O%",
"+$OOOOO$$$$$$O$$$$$O$$$$$OOOOXXXXXXXXOO$OXOOOO@@@@@XOOOOOOO@@@@@O%",
"+$$$$$$$$OOOXX$$$$O$$$$$$O$$$$$OOXXXXXXXXXOOO@@@@@@XXXX@O@O@@@@@O%",
"+$$$$$$$$$$$$O$$$XXXOOOXOOOOOOOOO$$$$$$XXOOO@@@@@@OXXXX@O@O@@@@@O%",
"+$$$$$$$$$$$$O$$$O$$$$$X$$$$$$$OO$$$$$XOOOO@@@@@OXXXXXX@O@O@@@XOO%",
"o$$$$$$$$$$$$OOOOO$$$$$X$$$$$$OXXXXXX$OOOOO@@@@OXXXXXXX@X@XXXXXOO%",
"o$$$$$$$$$$$$O$$$O$$$$$O$$$$$$XXXXXXX$OOOOOOXXXOXXXXXXXOXXXX..XOO%",
"  $$$$$$$$$$$OOOXX$$$$$O$$$$$XXXXXXX$XXOOXXXXXXOXXXXXOOXXXX...XO  ",
"  $$$$$$$$$$$O$$$X$$$$$X$$$$XXXXXXX$XXXOXXXXXXXOXXXOOXXXX.....XO  ",
"  $$$$$$$$$$$OOOXXXOOXXX$$$XXXXXX$$XXXXOXXXXXXXOXOOXXXXX......OO  ",
"  $$$OO$$$$$$X$$$$$$$$$O$$$XXXX$$$XXXXXOXXXXXXXOOXXXXX.......XOO  ",
"   $$$$OOOOXXX$$$$$$$OOOOOOXX$$$XXXXXXXOXXXXXXXXXXXXXX.......XO   ",
"   $$$$$O$$$$X$$$$$$$OOO$$$$$$XXXXXXXXOXXXXXXXXXXX$$$X.......XO   ",
"    $$$$O$$$$O$$$$$$XX$$$$$$XXXXXXXXXOXXXXXXXXX$$$$$$X.......#    ",
"    $$$$O$$$$$$$$$X.$$$$$$$XXXXXXXXXOXXXXXX$$$$$$$$$$$X.....X#    ",
"     $$$$$$$$$XX......$$$$OOOOOOOOOOXX$$$$$$$$$$$$$$$$X.....#     ",
"     $$$$OXX..........X$$.....XXXX....X$$$$$$$$$$$$$$$XX...X#     ",
"      #XXX...........$$$$.........XXXXX$$$$$$$$$$$$$X..X...#      ",
"      ##XX...........$$$$......XX.XXXX.X$$$$$$$$$$$.....XXX#      ",
"       #XX..........$$..$......XX.XXXX.X$$$$$$$$$.$.....X##       ",
"        #XX.......XXX...$......XXX.XXXX.X$$$$$X.$.$....###        ",
"         #X.....$$$.....$......XXX.XXXX.X$$$X...$.$...###         ",
"         ##XXX$$$.X.....$XXXXXXXXX.XXXXX.XXX....$.$..####         ",
"          ###...X.X....$........XXX.XXXX.XXXXXX.$.$.X###          ",
"           ###..X.X....$.........XX.XXXXXXXXXXX.$.$.###           ",
"             ##.X.X....$.........XX.XXXXXXXXXXX.$.$##             ",
"              ###.X...X..............XXXXXXXX...$X##              ",
"               ###X...X..............XXXXXX....####               ",
"                 ###X.X..............XXX.....####                 ",
"                   ###XX.................XX####                   ",
"                     #####XX.......XXXX######                     ",
"                       ####################                       ",
"                           ############                           "
};
