/* XPM */
static char *ea60b549990442daf9ea34c6e593cf5f1z1RPWpGltXFxoTt[] = {
/* columns rows colors chars-per-pixel */
"50 50 246 2 ",
"   c None",
".  c black",
"X  c #050506",
"o  c #060606",
"O  c #060706",
"+  c gray3",
"@  c #0C0D0C",
"#  c gray6",
"$  c #101213",
"%  c #131514",
"&  c #131515",
"*  c #151715",
"=  c #151716",
"-  c #171A19",
";  c #16191A",
":  c #17191A",
">  c #191818",
",  c #191919",
"<  c #191B1A",
"1  c #1B1A1A",
"2  c #1B1D1B",
"3  c #181B1C",
"4  c #1E1E1E",
"5  c #1D201E",
"6  c #1D211F",
"7  c #1E211F",
"8  c #1B1E20",
"9  c #1F2321",
"0  c #1E2122",
"q  c #202020",
"w  c #222221",
"e  c #222624",
"r  c #232725",
"t  c #252926",
"y  c #232628",
"u  c #262A28",
"i  c #24282A",
"p  c #25282B",
"a  c #272B2D",
"s  c #2C2C2B",
"d  c #282C2D",
"f  c #282C2F",
"g  c #2F2E2E",
"h  c #2D322F",
"j  c #2E3431",
"k  c #2D3134",
"l  c #303532",
"z  c #323835",
"x  c #343936",
"c  c #33393C",
"v  c #393F3F",
"b  c #39403C",
"n  c #3A4041",
"m  c #424A45",
"M  c #464D48",
"N  c #494E4B",
"B  c #484F4B",
"V  c #4A504D",
"C  c #49514E",
"Z  c #4C544F",
"A  c #495054",
"S  c #505853",
"D  c #545D57",
"F  c #535B58",
"G  c gray35",
"H  c gray36",
"J  c #58615B",
"K  c #58625C",
"L  c #5B655F",
"P  c #454775",
"I  c #474A7B",
"U  c #494D7D",
"Y  c #4B4F7E",
"T  c #576065",
"R  c #5D6063",
"E  c #5E6862",
"W  c #5F6863",
"Q  c gray38",
"!  c gray40",
"~  c #606963",
"^  c #616C65",
"/  c gray42",
"(  c #6A6D70",
")  c #6A7571",
"_  c #697474",
"`  c gray44",
"'  c #717171",
"]  c gray46",
"[  c #767676",
"{  c #767776",
"}  c #707D75",
"|  c gray49",
" . c #748078",
".. c #646B8B",
"X. c #61698E",
"o. c #6A718E",
"O. c #6A718F",
"+. c #737F81",
"@. c #727A94",
"#. c #727B95",
"$. c #4D64B1",
"%. c #4D64B2",
"&. c #4C64B3",
"*. c #4C65B5",
"=. c #4D67B6",
"-. c #687FBB",
";. c #748082",
":. c #79868B",
">. c #79868C",
",. c #7B878D",
"<. c #7B888A",
"1. c #7C898E",
"2. c #7386C4",
"3. c #7C8DC8",
"4. c #7C8EC8",
"5. c #4A95E1",
"6. c #4D96E2",
"7. c #4999E6",
"8. c #5198E2",
"9. c #6FA9E6",
"0. c #75B2EC",
"q. c #878B89",
"w. c #878F8A",
"e. c #839093",
"r. c #8D9C9F",
"t. c #949394",
"y. c #949F98",
"u. c #95A09A",
"i. c #828DA0",
"p. c #8E9AA8",
"a. c #8F9DAD",
"s. c #9EAAA3",
"d. c #9BACA3",
"f. c #9CACA3",
"g. c #9DAEA4",
"h. c #96A4AD",
"j. c #9FB0A6",
"k. c #99A7B0",
"l. c #9AA8B1",
"z. c #9EADB3",
"x. c #9EAEB3",
"c. c #9FAFB3",
"v. c #9FAEB4",
"b. c #A8B5AD",
"n. c #A0B1B6",
"m. c #A2B3B7",
"M. c #A7B8B5",
"N. c #A7B8BC",
"B. c #AEC0B6",
"V. c #8798CD",
"C. c #8898CD",
"Z. c #9AAFC7",
"A. c #9FACD6",
"S. c #ACBEC1",
"D. c #AEB9DD",
"F. c #AFC2C4",
"G. c #B0C2C0",
"H. c #B2C5C6",
"J. c #B5C8C4",
"K. c #B7CAC5",
"L. c #BACDC2",
"P. c #B8CBC7",
"I. c #B9CCC9",
"U. c #BBCEC8",
"Y. c #BCCFC9",
"T. c #BDD1C6",
"R. c #BED2C7",
"E. c #BDD1CA",
"W. c #BED2CB",
"Q. c #BFD3CB",
"!. c #BFD3CC",
"~. c #BFD5CF",
"^. c #B7C1E0",
"/. c #BEC7E5",
"(. c #B0CBEB",
"). c #BBD8F3",
"_. c #C0D4C7",
"`. c #C0D4CB",
"'. c #C0D5CB",
"]. c #C1D6CA",
"[. c #C2D6CB",
"{. c #C2D7CB",
"}. c #C1D6CD",
"|. c #C2D6CD",
" X c #C3D8CD",
".X c #C4D9CC",
"XX c #C4D8CE",
"oX c #C6DBCF",
"OX c #C2D6D0",
"+X c #C7DCD0",
"@X c #C6DCD2",
"#X c #C8DDD1",
"$X c #C8DED1",
"%X c #C8DDD3",
"&X c #CBDDD3",
"*X c #CADFD2",
"=X c #CBDED3",
"-X c #D6DEDA",
";X c #CBE0D3",
":X c #CBE0D4",
">X c #CDE0D5",
",X c #CEE3D5",
"<X c #CEE1D6",
"1X c #CFE1D7",
"2X c #D0E4D6",
"3X c #D2E6DA",
"4X c #D6E8DE",
"5X c #C0C9E4",
"6X c #C5CDE7",
"7X c #C7CEE8",
"8X c #DDEEE4",
"9X c #EEEEEE",
"0X c #E1F1E8",
"qX c #E5F4EB",
"wX c #E0EDF3",
"eX c #E6E9F5",
"rX c #E9EBF6",
"tX c #EDF8F1",
"yX c #EEF0F8",
"uX c #EAF5FF",
"iX c #F3F3F3",
"pX c #F0F7F3",
"aX c #F6F5F3",
"sX c #F3F4F4",
"dX c #F4F9F5",
"fX c #F4FAF6",
"gX c #F4FAF7",
"hX c #F5FBF7",
"jX c #F6FAF7",
"kX c #F8FAF7",
"lX c #F3F4F9",
"zX c #F1F9FF",
"xX c #F8F8F8",
"cX c #F9F9F9",
"vX c #F8F8FA",
"bX c #FCFBFA",
"nX c #F8FDF8",
"mX c #F9FEF8",
"MX c #F8FFFB",
"NX c #FAFBFD",
"BX c #FBFBFE",
"VX c #FBFDFC",
"CX c #FEFCFD",
"ZX c #FDFEFE",
"AX c #FEFEFE",
"SX c white",
/* pixels */
"                                                                                                    ",
"                                                                                                    ",
"                                                                                                    ",
"                                                                                                    ",
"                                                                                                    ",
"                                                                                                    ",
"                                                                                                    ",
"                                                                                                    ",
"                                                                                                    ",
"                                                              . . . . .                             ",
"                                                            E } q.t.w.j                             ",
"                                                          ] -XtXSXnXy.x                             ",
"                                                        ` 9XSXSXSXqXm                               ",
"                                                      / aXSXSXSXpXu.z                               ",
"                                                    ! sX/.D.yXSX0Xb                                 ",
"                                                  Q bXSXA.V.eXdXs.z                                 ",
"                                                H vX7X5X6XBXSX8Xz                                   ",
"                                              G SXBXC.3.3.rXdXb.l                                   ",
"                                            V dXdXdXnXnXnXdX4Xh                                     ",
"                                          = g.f.d.d.d.d.d.d.j.u                                     ",
"                                    g s r 7 . . . . . . . . . .                                     ",
"                                w R uXwX1XB.9 7 7 7 7 7 7 7 7 O                                     ",
"                          > > ( zX).7.0.kX1X&X&X&X&X&X&X&X&X1XN > 4 4 4 w @ .                       ",
"                        + | SX(.6.8.5.9.lXSXSXSXSXSXSXSXSXSXSXvXvXvXvXvXiX`                         ",
"                      . ] SX^.=.=.=.=.=.2.VXVXVXVXVXVXVXVXVXVXVXVXVXVXSX] .                         ",
"                      . ~ 2XZ.%.%.%.%.%.-.&X&X&X&X&X&X&X&X&X&X&X&X&X&X3XE .                         ",
"                        O ^ +Xa.U U I X.~.+XoXoXoXoXoXoXoXoXoX{.{.{.{.{.R.K                         ",
"                          & & F Q.h.P ..&X{.x.x.x.x.x.x.x.x.n.v = ; ; ; > @ .                       ",
"                                2 V P.G.n.r.3 ; ; ; ; ; ; ; ; O                                     ",
"                                    t r 8 ; . . . . . . . . . .                                     ",
"                                          $ >.>.:.:.:.:.:.:.1.9                                     ",
"                                            n Q.!.Q.|.|.|.!.N.y                                     ",
"                                              M oXoX#.o.o.J.{.e.u                                   ",
"                                                N {.v.l.x. X&XS.a                                   ",
"                                                  Z oX;Xi.#.J.Q.<.a                                 ",
"                                                    S R.k.p.I.&XF.k                                 ",
"                                                      D _.1X&X+XY.;.f                               ",
"                                                        J L.:X&X&XH.c                               ",
"                                                          L M.I.&XOX+.f                             ",
"                                                            A T )  ._ u                             ",
"                                                              . . . . .                             ",
"                                                                                                    ",
"                                                                                                    ",
"                                                                                                    ",
"                                                                                                    ",
"                                                                                                    ",
"                                                                                                    ",
"                                                                                                    ",
"                                                                                                    ",
"                                                                                                    "
};
