/* XPM */
static char *limit_stone1700914696[] = {
/* columns rows colors chars-per-pixel */
"32 34 8 1 ",
"  c None",
". c #0C2535",
"X c #3F3B42",
"o c #3F4050",
"O c #504F55",
"+ c #6F6569",
"@ c #6AACF0",
"# c #95909E",
/* pixels */
"         @@@@@oooo@@@@@         ",
"            @@@@@@@@            ",
"               ###              ",
"            ########            ",
"           ##########           ",
"           ##++++####XXXX       ",
"           #++++O+####XXXXX     ",
"          #++++O+OOOOO+XXX.XX   ",
"         +++++++OOOOOO+++++.XX  ",
"        +X..X++++OOOOO++++++XX  ",
"   XXXX++.XXXO+##OOOO######+++X ",
"  XXX###X.XXX####+OO+#######+++ ",
"  XX####XXXXX###+++++#######++++",
"  X#####XXXO+###.X++++######++++",
"  ######++###+XXX.O+++######O+++",
" ######+++###+XXX.O++O+###+OO+++",
" ####+XX++++++XXXX@+++OO###++++ ",
" ###OXOO+XXXXXX+++@X+++####+..+ ",
" ##+OOOOX...X..X+++X+######O.++ ",
" ##+OOO+...XXXXX+++++######+O@+ ",
"  +++OO+..XXXXXX++X+++#####+@@+ ",
" +++++++X.XXXXXX@+X+++++XX+++++ ",
"  ++X+###XXXXXX@@XX++++X.XX++++ ",
" ++++X###+XXXX++X..XXXX..XX+++  ",
"  +++XXXX++@@+.....X..X..O+++O  ",
"  O++XX...XX+......X..X..O++OO  ",
"  @OOOX.....+...XX..XX.XXXOOO@  ",
"   @OOOO....+X.XX.........OO@@  ",
"    @@OOO....++X....X....O@@@   ",
"     @@@OO.....O....OOOO@@@@    ",
"       @@@@OOOOO...OOO@@@       ",
"         @@@@OOOO@@@@@@@        ",
"          @@@@@@@@@@            ",
"                                "
};
