/* XPM */
static char *result[] = {
/* columns rows colors chars-per-pixel */
"50 50 215 2 ",
"   c #1B2F1E",
".  c #1F3321",
"X  c #213623",
"o  c #243A25",
"O  c #293F28",
"+  c #273D29",
"@  c #2C432A",
"#  c #2C4B2E",
"$  c #30462D",
"%  c #334A2E",
"&  c #2B4332",
"*  c #2F4D32",
"=  c #354C32",
"-  c #394F32",
";  c #3C5334",
":  c #3C5837",
">  c #2F502F",
",  c #3D673B",
"<  c #445C39",
"1  c #455D39",
"2  c #45623D",
"3  c #4B633D",
"4  c #416B3D",
"5  c #2E4A43",
"6  c #324D42",
"7  c #3E5A48",
"8  c #3C5C57",
"9  c #3E6442",
"0  c #3A5D64",
"q  c #4D6641",
"w  c #496644",
"e  c #536D45",
"r  c #4B7846",
"t  c #52784A",
"y  c #496757",
"u  c #567857",
"i  c #516D52",
"p  c #67755E",
"a  c #53756A",
"s  c #547976",
"d  c #466B6F",
"f  c #6B7C60",
"g  c #4E8C4C",
"h  c #51854B",
"j  c #518C4D",
"k  c #52934F",
"l  c #588752",
"z  c #539452",
"x  c #569A54",
"c  c #589B56",
"v  c #5D945C",
"b  c #5B9D5A",
"n  c #599556",
"m  c #65975E",
"M  c #648A5B",
"N  c #5CA25C",
"B  c #5C9B63",
"V  c #48807F",
"C  c #718463",
"Z  c #659B67",
"A  c #76966A",
"S  c #6D9C7B",
"D  c #71946A",
"F  c #65AB65",
"G  c #64A26B",
"H  c #67A666",
"J  c #71A76E",
"K  c #6BB26C",
"L  c #6AA677",
"P  c #77AA73",
"I  c #6EB571",
"U  c #74BC7A",
"Y  c #75B776",
"T  c #79C37D",
"R  c #7DC87F",
"E  c #8A997C",
"W  c #84AC7D",
"Q  c #4A7691",
"!  c #517F96",
"~  c #4E7887",
"^  c #498281",
"/  c #5B8A9C",
"(  c #538198",
")  c #508F91",
"_  c #45A39A",
"`  c #6EA583",
"'  c #6FA883",
"]  c #73AA8D",
"[  c #73AA83",
"{  c #73B382",
"}  c #7ABE84",
"|  c #79B68C",
" . c #78B78B",
".. c #75AC93",
"X. c #79AE96",
"o. c #7AAE99",
"O. c #7EBD94",
"+. c #7CB399",
"@. c #7CB695",
"#. c #5A8BA4",
"$. c #5F92B0",
"%. c #6093B1",
"&. c #43AFA4",
"*. c #7CC384",
"=. c #7EC18A",
"-. c #7ECA81",
";. c #5C94C1",
":. c #629BCA",
">. c #629DD1",
",. c #66A3DC",
"<. c #69ABED",
"1. c #68A5E2",
"2. c #6AACF0",
"3. c #87B885",
"4. c #82BD9A",
"5. c #86B998",
"6. c #94B896",
"7. c #91A580",
"8. c #A5B493",
"9. c #8AB9A1",
"0. c #94BCA3",
"q. c #B9BEA3",
"w. c #909683",
"e. c #82C48B",
"r. c #84CB8A",
"t. c #85C886",
"y. c #89D48C",
"u. c #86D38B",
"i. c #86CC92",
"p. c #85C59A",
"a. c #87C99A",
"s. c #8ACC9B",
"d. c #87C796",
"f. c #97C997",
"g. c #8BD592",
"h. c #8DDB92",
"j. c #8DD49B",
"k. c #8FDA9A",
"l. c #90DE95",
"z. c #93DC9C",
"x. c #97D79A",
"c. c #91C88D",
"v. c #95E59B",
"b. c #9AE69E",
"n. c #97E89C",
"m. c #95E59A",
"M. c #8EE094",
"N. c #8EC3A1",
"B. c #96C9A3",
"V. c #9AD4A4",
"C. c #9DDBA9",
"Z. c #89D5B4",
"A. c #A9CAA6",
"S. c #B8CAA9",
"D. c #ABD5AC",
"F. c #A7DAA8",
"G. c #B6D3A9",
"H. c #B9D7AD",
"J. c #A7C7B1",
"K. c #B6CEB9",
"L. c #AED7B2",
"P. c #BBD1BC",
"I. c #B7D8B4",
"U. c #9EE7A1",
"Y. c #93E2A1",
"T. c #A2E7A4",
"R. c #A5E8A5",
"E. c #AEE3AE",
"W. c #ACEAAA",
"Q. c #A9E6A7",
"!. c #B4E3AE",
"~. c #B1EAAE",
"^. c #B5E2B3",
"/. c #B5EBB1",
"(. c #BBEBB5",
"). c #BEE3BA",
"_. c #BBE4B5",
"`. c #C6DAB9",
"'. c #D2D6BD",
"]. c #D1CFB9",
"[. c #C3E5BA",
"{. c #C4EDBB",
"}. c #C9EDBF",
"|. c #C8E6BB",
" X c #C1F0BA",
".X c #94BFCE",
"XX c #82CCC4",
"oX c #CADFC4",
"OX c #D5DBC5",
"+X c #CDEDC2",
"@X c #CCE4C3",
"#X c #D3EEC5",
"$X c #D5E2CC",
"%X c #D6EDC8",
"&X c #DAECCB",
"*X c #D6E5C6",
"=X c #DDF0CC",
"-X c #D2F1C6",
";X c #DEE8D1",
":X c #E3E6CC",
">X c #E1F1CF",
",X c #E4ECD3",
"<X c #ECEDDA",
"1X c #E5E6D4",
"2X c #F2EDDA",
"3X c #F0ECD6",
"4X c #E4F1D2",
"5X c #EAF2D5",
"6X c #EEF3D9",
"7X c #F3F3DC",
"8X c #F8F4DF",
"9X c #FEF5E4",
"0X c #FEF8E6",
"qX c #FAF4E3",
"wX c None",
/* pixels */
"wXwXwXwXwXwXwXwXwXwXwXwXwXwXwXwXwXwXwXwXv.n.v.U./. X7X9X9XwXwXwXwXwXwXwXwXwXwXwXwXwXwXwXwXwXwXwXwXwX",
"wXwXwXwXwXwXwXwXwXwXwXwXwXwXwXwXv.n.v.v.v.n.~.-X7X8X9X9X9X9X9X9X9XwXwXwXwXwXwXwXwXwXwXwXwXwXwXwXwXwX",
"wXwXwXwXwXwXwXwXwXwXwXwXwXwXwXv.v.v.v.n.v.W.4X5X}.4X9X9X9X9X9X9X9X9X9XwXwXwXwXwXwXwXwXwXwXwXwXwXwXwX",
"wXwXwXwXwXwXwXwXwXwXwXwXwXv.n.v.v.n.v.n.R./.{.+X4X8X9X9X9X9X9X9X9X9X9X9X9XwXwXwXwXwXwXwXwXwXwXwXwXwX",
"wXwXwXwXwXwXwXwXwXwXwXv.v.v.v.v.z.z.z./.4X7X7X7X9X9X9X9X9X9X9X9X9X9X9X9X9X9XwXwXwXwXwXwXwXwXwXwXwXwX",
"wXwXwXwXwXwXwXwXwXwXv.v.z.s.p.p.p.O.4.@X9X9X9X9X9X0X9X9X9X9X9X9X9X9X9XqX9X9X5XwXwXwXwXwXwXwXwXwXwXwX",
"wXwXwXwXwXwXwXwXv.n.n.n.j.+.X.....X.4.).qX5X7X9X9X9X9X9X9X9X9X9X7X5X#X=XqX6X(.n.n.wXwXwXwXwXwXwXwXwX",
"wXwXwXwXwXwXwXv.v.v.n.k.=.| p.O.5.J.L.@X4X%X5X9X9X9X9X9X9X9X9X9X7X%X{.+X#X_.b.v.v.v.wXwXwXwXwXwXwXwX",
"wXwXwXwXwXwXwXn.v.v.n.u.U =.r.t.F.;X<X7XqX7XqX9X9X9X9X9X9X9X9X9X9X6X=X).B.N.z.v.n.n.n.wXwXwXwXwXwXwX",
"wXwXwXwXwXwXv.v.v.n.v.g.t.=.d.`.4XqX0X9X9X9X9X9X9X0X9XqX9X0X9X9X<X#XI.J.B.N.z.b.m.z.z.wXwXwXwXwXwXwX",
"wXwXwXwXwXO.k.v.v.n.j.a.*.O.P.7X7X4XqX9X9X9X9X9X7X4X%X@XOX1XqX8X&XK.I.@X;X#XL.i. .O.O.d.wXwXwXwXwXwX",
"wXwXwXwXwXK.(.(.x.i.a.d. .5.).%X%X=XqX9X9X9X9X9X<X%X).V.D.oX8X9X<X;X<XqX0X0X&Xp.S ] ] { g.wXwXwXwXwX",
"wXwXwXwX2X6X5X5XG.| @.p.O.a.R.+X4XqXqXqX9X0X9X9XqX4XL.C.^.5X0X0XqX9X0X9X9X9XqXOX6.o...L =.wXwXwXwXwX",
"wXwXwXwX9XqX=X4X|.f.O.V.V.p.V.{.7X0X7X=X,X0X0X0XqX-XV.j.@X5X5X,X{.-X>X7XqXqX7X6XI.N.....=.m.wXwXwXwX",
"wXwXwX9X9XqX4X%X+X^.^.#X@XB.N.L.4X5X}.R.E.$X$XOXI.z.s.=.F.W.~.W.T.(.+X=X8X7X6X4X}.C.N.J.L./.wXwXwXwX",
"wXwXwX9X9X9X9XqX6X6X7X9XqX*X(.@X>X%XR.z.L.oXJ.5.Y ] +.N.m.n.U.Y.W.#X4X7X9X9X7X6X%X(.@X<X6X4X}.wXwXwX",
"wXwX9X9X9X9X9X9X9X9X9X9X9X9X7X=X4X7X_.D.<X7XOX9.O.....V.E.{.+X+X#X#X=X7X9X0X9X7X#X-X6X0X8X%X(.wXwXwX",
"wXwX9X9X9X9X9X9X9X9X9X9X9X9X9X9X9X9X3X:X0X9XqXF.a.{ G } `.qX7X7X9X<X4X7X0X9X9X<X%X%X4X9X7X=X>X7XwXwX",
"wX0X9X7X5X7X9X9X9X9X9X9X9XqXqX6X>X>X>X7XqX5X5XE.j.@.G G H.>X%X-X7X9X9X9X9X9X9X9XqX7X7X9X9XqX6X4XwXwX",
"wX2X9X5X{.#X4XqX9X9X9X8X5X=X%X(.U.b.U.(.+X}.=XW.z.=.o.@.x.(.>X7X9X9X9X9X9X9X9X9X9X9X9X9X7X&X+X}.wXwX",
"^ S.2X5X#X#X=X%X,X9XqX=X}.(.R.m.m.m.m.b.T.-X6XQ.p.@.o.o.B.;X0X9X9X9X9X9X9X9X9X9X9X9X9X9X7X%X7X9XwXwX",
"^ G G.}.>X5X@XV.L.$X,X*X).E.U.m.m.m.m.m.T.~.@XB.L ` o.4.s.^.5XqXqX9X9X0X9X9X9X9X9X9X9X9X9XqX6X1X1XwX",
"V z F F.-XE.N.j.m.z.B.N.4.s.v.k.i.h.v.U.{.#XD.*.B ' +.j.v.i.D.#X5X7XqXqXqXqXqXqX,X%X%X%X*X`.f.5.9.wX",
"^ z N y.Y.n.v.m.m.m.n.k.j.s.z.h.*.} j.m.T._.0.Z ` o.+.j.Y.-.Y g.C.L.K.K.K.K.K.K.f.r.m.l.I c Z ..o.wX",
"_ z N h.n.m.n.s.p.j.m.v.v.s.4.p.O.i.z.v.U.D.5.] o.o.o.4.4.{ N F F Z G ` X.o...{ H L | L k j L 5.9.wX",
"&.x b g.n.m.m.a.+.+.| =.j.a.s.m.m.m.n.v.m.j.L ] o.o.4.4.+.Z l g k k k b ` ]  .g.u. .@.J m W ].<X<XwX",
"_ z l g.v.m.m.a.+.o.' ' ..4.j.n.m.m.n.v.n.z.P ` o.=.Y.z.O.` t h j z g l B S U k.u.T y.b.|.3X8X9X9XwX",
"~ g l u.v.n.m.k.p.+.o.+.a.j.z.v.v.v.v.m.m.k.J v Z I u.I M u t z c c z l v n b F F H e.z.~.[.>X6X}.wX",
"s z t I z.n.n.m.s.4.4.4.a.k.m.v.v.v.g.=. .e.Z h x K -.T G Z F T u.y.u.y.y.R F H 3.G.!.m.n.b.(.7X6XwX",
"^ k r H M.n.n.u.T T r.j.a.s.z.n.v.k.=.U T T h h k x N F } =.U T g.m.v.v.W.!.x.c.!.Q.b.m.v.U.-X9XwXwX",
"wXz e l K I I F x x T j.k.m.v.m.n.k.a.l.M.R j k k x k K g.Y 3.G.|.+X-X/.~.~.U.m.U.m.v.v.v./.7X9XwXwX",
"wXk h 4 h x x k z N R m.v.U.x.u.M.Y.s.V.j. .v g g g k P `.'.*X2X8X>X}.~.b.n.n.n.T.T.m.U./.5X9X9XwXwX",
"wXwXj < , k k k N -.M.m.R.-X4X`.R P P [ B.J.8.A q e A '.7X9X9X9X9XqX5X=X(.T.U./.(.{.(.%X7X9X9X9XwXwX",
"wXwXg 2 2 r k k N R M.T.-X7X9X3X].C i E OX3X1XOXE D H.0X9X9X9X9X9X9X9XqX6X%X%X5X4X=X7X9X9X9X9XwXwXwX",
"wXwXwXq ; 2 g k k F c.[.4X=X>X8X2Xq.E ].9X9X0X9XOXH.7X9X9X9X9X9X9X9X9X9X9X9X8X9X9XqX6X6X4X{.-XwXwXwX",
"wXwXwX3 ; : , r h m 8.*X>X}.-X8X8X6X:X8X9X9X9X9X7X%X=X4X7X9X9X9X9X9X9X9X9X9X9X8X5X=X-X(.W.n.wXwXwXwX",
"wXwXwXwX3 ; + & # 3 C 8.[././.-X}.H.}.>X>X8X8X>X+X X-X-X7X9X9X9X0X0X9X7X=X-X4X7X4X+X(.R.m.v.wXwXwXwX",
"wXwXwXwX3 @ o o o X % M c.n.n.b.W H R T.Q.{.{.~.W.R.(.-X7X9X0X9X2X*X|./.Q.(.#X#X}./.R.n.Y.wXwXwXwXwX",
"wXwXwXwXwX& & - - @ $ 2 m W y.Y n j N R T.~.W.(.W.n.h.x.F.A.'.].8.E D J y.W. X{.~.n.Y.Z.Z.wXwXwXwXwX",
"wXwXwXwXwX~ y w 3 < > - ; 3 u l k x k H f.!.}.-X(.y.K n r w p C e 1 1 3 J t.t.3.W t.C.XXwXwXwXwXwXwX",
"wXwXwXwXwXwX#.a 3 3 3 1 ; O O ; h g g k v A A.#XA.m 4 % X   @ < 3 < ; - 1 u < $ > a XXwXwXwXwXwXwXwX",
"wXwXwXwXwXwXwX%.a 3 3 3 3 < + o % , r r , : p w.p # + X X X @ = = @ X X o X X . 5 Q 1.wXwXwXwXwXwXwX",
"wXwXwXwXwXwXwX2.%.a 3 3 3 1 @ X o $ - < - $ @ X   X X X X X X . X X X O @ $ < 7 ( 1.wXwXwXwXwXwXwXwX",
"wXwXwXwXwXwXwXwX<.#.u e 1 ; @ X X + O O @ o . o X X X X o X o o + O % : 1 3 e / ,.wXwXwXwXwXwXwXwXwX",
"wXwXwXwXwXwXwXwXwXwX#.s 7 + . . X X X X X X X X X X X + @ @ @ @ - < 1 q i s / wXwXwXwXwXwXwXwXwXwXwX",
"wXwXwXwXwXwXwXwXwXwXwX>.#.d 5 & o X X X X X X X X X X + @ O $ = % = 7 a #.>.wXwXwXwXwXwXwXwXwXwXwXwX",
"wXwXwXwXwXwXwXwXwXwXwXwXwX,.;.! 8 5 & O O O + o X . X X . X o O & 8 ! >.2.wXwXwXwXwXwXwXwXwXwXwXwXwX",
"wXwXwXwXwXwXwXwXwXwXwXwXwXwXwX2.,.:.! s s w : - & + + = = 6 0 d / :.<.wXwXwXwXwXwXwXwXwXwXwXwXwXwXwX",
"wXwXwXwXwXwXwXwXwXwXwXwXwXwXwXwX2.2.<.<.,.#./ ( ( Q Q / / $.1.<.<.wXwXwXwXwXwXwXwXwXwXwXwXwXwXwXwXwX",
"wXwXwXwXwXwXwXwXwXwXwXwXwXwXwXwXwXwXwXwX2.2.2.2.2.2.2.2.2.wXwXwXwXwXwXwXwXwXwXwXwXwXwXwXwXwXwXwXwXwX"
};
