/* XPM */
static char *result[] = {
/* columns rows colors chars-per-pixel */
"50 50 217 2 ",
"   c #1C352E",
".  c #17312A",
"X  c #1D3730",
"o  c #1E3934",
"O  c #223D39",
"+  c #233C36",
"@  c #23423E",
"#  c #29423D",
"$  c #224035",
"%  c #2C5138",
"&  c #30583F",
"*  c #254542",
"=  c #264946",
"-  c #274B49",
";  c #294D4C",
":  c #2D4643",
">  c #324D49",
",  c #354B46",
"<  c #2C524B",
"1  c #35554D",
"2  c #2A4D50",
"3  c #2C5555",
"4  c #2F545B",
"5  c #2F595A",
"6  c #2C5954",
"7  c #325B5C",
"8  c #375859",
"9  c #36644F",
"0  c #36685B",
"q  c #3E755E",
"w  c #3D7254",
"e  c #365E67",
"r  c #346466",
"t  c #366964",
"y  c #396C64",
"u  c #356569",
"i  c #39676A",
"p  c #3C6C6A",
"a  c #366A69",
"s  c #3D7362",
"d  c #3B7869",
"f  c #396374",
"g  c #3B6779",
"h  c #35706D",
"j  c #445E5B",
"k  c #425653",
"l  c #4B625E",
"z  c #40775D",
"x  c #427A5D",
"c  c #446867",
"v  c #566764",
"b  c #5A6D6C",
"n  c #546B68",
"m  c #447B62",
"M  c #457769",
"N  c #466B71",
"B  c #477275",
"V  c #527C73",
"C  c #557A7D",
"Z  c #587D7F",
"A  c #597374",
"S  c #5A706F",
"D  c #667878",
"F  c #717F7F",
"G  c #3C8375",
"H  c #3F8A72",
"J  c #52944F",
"K  c #498657",
"L  c #4D8C54",
"P  c #46825A",
"I  c #498559",
"U  c #4C875A",
"Y  c #4F9152",
"T  c #4E9359",
"R  c #529551",
"E  c #519956",
"W  c #519C5B",
"Q  c #5A995B",
"!  c #59965B",
"~  c #609A5F",
"^  c #4EA05F",
"/  c #488868",
"(  c #568767",
")  c #4E9F68",
"_  c #529F60",
"`  c #5A9964",
"'  c #428D76",
"]  c #5D847B",
"[  c #5A8375",
"{  c #459D7B",
"}  c #459875",
"|  c #5C967F",
" . c #65996B",
".. c #648A7A",
"X. c #6C9B71",
"o. c #6B947A",
"O. c #739D7A",
"+. c #4EA366",
"@. c #4FA66B",
"#. c #4FA96E",
"$. c #50A264",
"%. c #50A569",
"&. c #4BA674",
"*. c #4EAC73",
"=. c #4DAE79",
"-. c #49A37B",
";. c #5BAA7A",
":. c #4DB17C",
">. c #47B17F",
",. c #56B27F",
"<. c #6BA579",
"1. c #74A175",
"2. c #74A57B",
"3. c #79A27C",
"4. c #6DA06D",
"5. c #9A9765",
"6. c #BDAD7C",
"7. c #B8A679",
"8. c #B18F76",
"9. c #3F7185",
"0. c #43728E",
"q. c #437E8D",
"w. c #477997",
"e. c #4F7686",
"r. c #4B7DA1",
"t. c #3E9886",
"y. c #3FA08E",
"u. c #428789",
"i. c #5D8284",
"p. c #439682",
"a. c #458196",
"s. c #628483",
"d. c #6D898D",
"f. c #688984",
"g. c #758181",
"h. c #738A8B",
"j. c #78898A",
"k. c #7A9D85",
"l. c #759688",
"z. c #738B93",
"x. c #7B9394",
"c. c #7B9494",
"v. c #698D8D",
"b. c #44A88A",
"n. c #55A38A",
"m. c #4CB583",
"M. c #4CB887",
"N. c #4CBB8C",
"B. c #4AB78B",
"V. c #58B383",
"C. c #4BBE91",
"Z. c #46B896",
"A. c #7DA381",
"S. c #72A982",
"D. c #4D85A8",
"F. c #5184A8",
"G. c #548EB9",
"H. c #5790BF",
"J. c #658CA6",
"K. c #6895B6",
"L. c #4BC295",
"P. c #4AC69C",
"I. c #4AC89F",
"U. c #46C39B",
"Y. c #49CBA4",
"T. c #49CBA6",
"R. c #5E9AD2",
"E. c #5995C6",
"W. c #609ED7",
"Q. c #6B9EC9",
"!. c #59BCCA",
"~. c #63A1DD",
"^. c #69ABED",
"/. c #67A7E5",
"(. c #6AACF0",
"). c #6DB0F7",
"_. c #7EAEE0",
"`. c #829B96",
"'. c #859A9B",
"]. c #8B9D9D",
"[. c #839598",
"{. c #929A9D",
"}. c #80958E",
"|. c #81A585",
" X c #84A38C",
".X c #89A88E",
"XX c #87A88B",
"oX c #86A192",
"OX c #8AA495",
"+X c #8DAA92",
"@X c #8CA29A",
"#X c #85AC96",
"$X c #94AC9A",
"%X c #9AAE9E",
"&X c #91AA98",
"*X c #8E9EA3",
"=X c #959EA1",
"-X c #93A3A3",
";X c #9BADA4",
":X c #9DAAAB",
">X c #99A7A6",
",X c #9EB0A4",
"<X c #92A3AA",
"1X c #A1ACAC",
"2X c #A5B2AC",
"3X c #A4B1A6",
"4X c #A4ADB2",
"5X c #ABB3B5",
"6X c #AEB4B9",
"7X c #B3B5B6",
"8X c #B3B7BB",
"9X c #B5B8BE",
"0X c #9CC9B9",
"qX c #B7B8C0",
"wX c #B9BBC1",
"eX c #A4B4C5",
"rX c None",
/* pixels */
"rXrXrXrXrXrXrXrXrXrXrXrXrXrXrXrXrXrX(.(.(.^.(.(.(.(.(.(.(.(.(.(.rXrXrXrXrXrXrXrXrXrXrXrXrXrXrXrXrXrX",
"rXrXrXrXrXrXrXrXrXrXrXrXrXrXrXrXrXrXrXrX!.!.!.!.!.!.!.!.!.!.rXrXrXrXrXrXrXrXrXrXrXrXrXrXrXrXrXrXrXrX",
"rXrXrXrXrXrXrXrXrXrXrXrXrXrXrXrXrXrXT.Y.Y.Y.T.T.Y.Y.Y.T.Y.Y.Y.Y.rXrXrXrXrXrXrXrXrXrXrXrXrXrXrXrXrXrX",
"rXrXrXrXrXrXrXrXrXrXrXrXrXrXrXrXT.Y.Y.Y.Y.Y.Y.Y.Y.Y.Y.Y.Y.T.T.Y.T.T.rXrXrXrXrXrXrXrXrXrXrXrXrXrXrXrX",
"rXrXrXrXrXrXrXrXrXrXrXrXrXrXY.Y.Y.Y.Y.Y.Y.Y.Y.Y.Y.Y.Y.Y.V.:.:.:.:.L.Y.Y.rXrXrXrXrXrXrXrXrXrXrXrXrXrX",
"rXrXrXrXrXrXrXrXrXrXrXrXY.I.Y.Y.Y.Y.Y.Y.Y.Y.T.T.T.T.I.L.*.#.m.N.N.m.L.Y.T.T.rXrXrXrXrXrXrXrXrXrXrXrX",
"rXrXrXrXrXrXrXrXrXrXrXY.Y.Y.Y.P.L.Y.T.Y.L.M.M.M.M.b.{ -.+.$.:.P.Y.L.M.L.Y.T.Y.rXrXrXrXrXrXrXrXrXrXrX",
"rXrXrXrXrXrXrXrXrXL.L.I.Y.Y.P.L.N.Y.Y.L.m.m.M.m.m.u.u.-.:.=.*.L.Y.Y.L.m.:.:.:.L.T.rXrXrXrXrXrXrXrXrX",
"rXrXrXrXrXrXrXrXT.P.m.L.T.Y.L.:.P.Y.L.m.L.I.P.I.Z.q.w.b.I.P.*.L.T.T.T.:.+.+.+.=.P.Y.rXrXrXrXrXrXrXrX",
"rXrXrXrXrXrXrXT.Y.T.:.*.M.m.:.L.Y.I.:.L.Y.Y.Y.Y.Z.' u.Z.T.T.M.P.T.T.Y.n.<.2.2.<.,.P.Y.rXrXrXrXrXrXrX",
"rXrXrXrXrXrXY.T.T.L.m.:.,.:.:.P.I.L.:.I.Y.Y.Y.I.P.-.Z.P.Y.L.=.M.Z.y.n.#X2X2X2X$X<.>.Y.U.rXrXrXrXrXrX",
"rXrXrXrXrXrXY.T.P.N.L.I.I.:.$.=.#.$.#.L.Y.Y.Y.Y.Y.C.Y.Y.Y.:.*.=.u.t.v.:XqX9XqX8XOX| n.<.rXrXrXrXrXrX",
"rXrXrXrXrXY.T.L.=.=.M.L.I.L.^ J J R E #.L.Y.Y.Y.Y.Y.Y.Y.Y.:.:.:.p.D.J.1X9X8X8X8X5X>X-XXXQ rXrXrXrXrX",
"rXrXrXrXT.Y.T.:.W W W $.=.=.*.$.W R J E *.P.Y.Y.I.L.Y.Y.Y.:.#.*.{ a.i.`.$X+X&X,X8X9XwX,XQ J rXrXrXrX",
"rXrXrXrXI.Y.T.:.R J J J J E $.*.#.%.W R E M.Y.I.P.=.I.Y.I.=.R #.-./ l.OX|.1.1.+X8X6X3X|.! J rXrXrXrX",
"rXrXrXW :.P.T.m.W R J R J J J E %.#.#._ E L.Y.P.m.%.M.L.:.^ J #.#.` %XwX;XXXk.OX8X;XX.Q L K J rXrXrX",
"rXrXrXJ E :.P.P.#.E J R R R R J R E $.#.*.L.Y.m._ W $.$.W J J #.#.$.XX*Xx.f...[.9XOXP J K x J rXrXrX",
"rXrXR R J E :.P.:.W R J R R R J R J R ^ M.Y.I.:.%.:.:.:.%.E J %.;.2. Xf.Z e.C x.>Xf.x Y I s L R rXrX",
"rXrXR J J J %.:.=.$.W W E R R R R E R E :.Y.Y.:.M.Y.Y.T.M.E J ^ 2.2XqX+X|. Xl.Z V m x K z t K J rXrX",
"rXR R R J J #.*.W E %.*.$.^ %.$.$.$.%.#.M.T.Y.m.:.L.N.N.:.W _ #.#X6XqX.XO.O.[ p q K R L x t I J R rX",
"rXL L K Y R -.M.#.E R R W *.=.=.=.=.m.C.P.P.P.M.*.*.*.&.*.*.&.;.;X6X8X|.! K s s L R J Y x r x R E rX",
"5.[ [ M x d G ' ' s s I L L L L Y J Y ) #.+.+.%.#.%.+.} } ' G f.1X8X$X4.J E K P R J R R I r y L Q 0X",
"7.1X4X@XO.] A M y r r t y y y q x x x P R L K L R R J R Y L 0 i.-X@X .J J J P P R R R K y a t K Q 0X",
"6.7X9X8X6X8X;XXXx.f./ m p a y I J R J Y Y I q q x K R J J R / f.X.U P Y E E P P R K P y r r r q ! 0X",
"6.7X8X8X8X8X8X8XqX&X|.+X-Xd.B P Y R R L R J I z K L J R J Q k...T R R W *.N.{ P K q y r r t s / ` 0X",
"6.3X%X$X%X5X8X8XqX&X+X5XqX5X@XO.X...[ m K R x z K K K U R A.OX( L J R :.P.T.b.P L P x s d } &.N.,.0X",
"6.%X.X.X.X2X2X.X Xo.c.5XqX;XOX,X5X5X%XX.A.A.l.[ x y p y m [ V x Y E :.P.T.Y.p.s x / +.) #.U.I.Y.V.0X",
"6.7X7X8X8X8X5X,X;Xk..X6X:Xf.] k.A.o.o.4.3.3.3. .Q ].-X*X].i.s K E :.I.Y.Y.B.H h r H m.*.:.Y.T.Z.,.0X",
"7.7X9X9X8X8X8X8X9X$XA.+X|.k.:X2X;Xx.c.2X2X2X;XX.( c.*X-X@X( L J *.I.Y.L.{ d a u t G B.-.} b.b.H $.0X",
"8.7X8X8X8X8X8X8X9X$X3.XX3.|.5X9X5XOX@XqX9X7X@XM t p N e.`.! J J +.p.t.} m r r r t d H d h 0 6 y Q 0X",
"rX8X8X8X8X8X8X8X9X$X1.O...x.6XqX6X+X&XqX9X:XZ r r r p s.Z U L x s y a x q r r s x x h r 6 O + 0 E rX",
"rX8X8X8X9X9X8X9XqX$X3.3.s.i.@X&X`.d.*XqX1Xe.a r a C f.C i x q t r r r q x y x x s t 5 = +   $ z R rX",
"rXrX9X2X+X,X6X6X6XOXk.oXc.c.@XOX}.h.OX5Xx.r i e.x.'.e.p r x s r r r a x I m 0 t 0 2 @ +     : L rXrX",
"rXrX9X5X%XXXA.|.c.i.z.1X6X5X5X,XO.~ O.|...C c.[.h.C p r r x y r r r r t 0 y B B e O       + < Y rXrX",
"rXrX8X8X8X$X3.+X,Xl.'.5XqXwX8X@X .O.+X1X-Xc.z.C N r r t q q a u r r r N e.d.*X*Xc o     . + i ) rXrX",
"rXrXrX8X8X2X+X5XwX5X,X5X6X-Xj.d.[.4X7X7X-X] B t r r t M M p i i C d.d.'.:X4X6X7Xj.;     X = F.rXrXrX",
"rXrXrX8X9X7X,X;X1X-X[.D S j , k F 4X7X{.( w w x x q w w c d.c.c.<X4X5X8X9X9X9X9X-Xc X   O f R.rXrXrX",
"rXrXrXrXeX<X`.] n v > @ o     $ b >X:Xl % % < 9 9 9 1 < r '.8X9X9X9X9X9X8X9X9X1Xh.8 *   ; r.rXrXrXrX",
"rXrXrXrX_.K.B 6 o .           k }.4X{.#     X * ; - 5 5 6 A 4X9X9X8X9X9X8X7X=XS > * = 2 g W.rXrXrXrX",
"rXrXrXrXrXR.9.3 o X         * b }.F }.,     X - 5 - 0 u 3 3 c.6X9X9X6X4X>X{.D O . + f a.G.rXrXrXrXrX",
"rXrXrXrXrXrXD.f *   X O , j e l k # D ,     o ; r 3 6 r e ; C :X8X1Xj.D F }.v O + g E./.rXrXrXrXrXrX",
"rXrXrXrXrXrXrXG.f = : v g.g.j o   , D k @ @ # 3 r 5 2 r r 3 8 h.'.A > : v e.v : f R.).rXrXrXrXrXrXrX",
"rXrXrXrXrXrXrX(.E.w.N D S 8 =   + k S > = ; = ; 5 5 ; 5 r r 2 r i 3 : , v g.v c E.).(.rXrXrXrXrXrXrX",
"rXrXrXrXrXrXrXrX(.~.0.; = ; = . O v l .         @ e ; 6 r r 5 r u u e k b g.D r.~.(.rXrXrXrXrXrXrXrX",
"rXrXrXrXrXrXrXrXrXrXW.r.u 4 *   # j k   X   X   o < = ; e r r r r e 6 3 A z.K.^.rXrXrXrXrXrXrXrXrXrX",
"rXrXrXrXrXrXrXrXrXrXrX(.R.0.3 + * -       X   X   X o o 7 r r 7 3 ; @ e J.Q.W.rXrXrXrXrXrXrXrXrXrXrX",
"rXrXrXrXrXrXrXrXrXrXrXrXrXW.F.g 3 ; o X X   X         o 4 7 ; - = 4 w.R.^.rXrXrXrXrXrXrXrXrXrXrXrXrX",
"rXrXrXrXrXrXrXrXrXrXrXrXrXrXrX/.G.0.f 4 = O o + o o @ = - 4 f 9.F.W.^.rXrXrXrXrXrXrXrXrXrXrXrXrXrXrX",
"rXrXrXrXrXrXrXrXrXrXrXrXrXrXrXrXrX^.^.R.D.w.0.0.0.0.w.F.D.E./.^.(.rXrXrXrXrXrXrXrXrXrXrXrXrXrXrXrXrX",
"rXrXrXrXrXrXrXrXrXrXrXrXrXrXrXrXrXrXrXrX^.^.(.(.(.^.(.(.(.(.rXrXrXrXrXrXrXrXrXrXrXrXrXrXrXrXrXrXrXrX"
};
