/* XPM */
static char *right1700914697[] = {
/* columns rows colors chars-per-pixel */
"48 48 8 1 ",
"  c None",
". c black",
"X c #484A77",
"o c #4D65B4",
"O c #4D9BE6",
"+ c #9BABB2",
"@ c #C7DCD0",
"# c white",
/* pixels */
"                                                ",
"                                                ",
"                                                ",
"                                                ",
"                                                ",
"                                                ",
"                                                ",
"                                                ",
"                                                ",
"             ......                             ",
"             .+@@++.                            ",
"              .+@@@@.                           ",
"              .+@@@@@.                          ",
"               .+@@@@@.                         ",
"               .+@@XX@@.                        ",
"                .+@@@@@@.                       ",
"                .+@@XXX@@.                      ",
"                 .+@@@@@@@.                     ",
"                 .+++++++++.                    ",
"                 ..............                 ",
"                 ..........++@@..               ",
"           .......+++++++++@@XX@@..             ",
"           .@@@@@@@@@@@@@@@@@XXXX@@.            ",
"            .@@@@@@@@@@@@@@@oooooo@@.           ",
"            .###############oooooo##.           ",
"           .#################OOOO##.            ",
"           .......@@@@@@@@@@#OO##..             ",
"                 ..........@@##..               ",
"                 ..............                 ",
"                 .@@@@@@@@@.                    ",
"                 .@#######.                     ",
"                .@##ooo##.                      ",
"                .@######.                       ",
"               .@##oo##.                        ",
"               .@#####.                         ",
"              .@#####.                          ",
"              .@####.                           ",
"             .@##@@.                            ",
"             ......                             ",
"                                                ",
"                                                ",
"                                                ",
"                                                ",
"                                                ",
"                                                ",
"                                                ",
"                                                ",
"                                                "
};
