/* XPM */
static char *_7a5e566a0d6414a861a0ad8d6483bfe6tFB85jeyVDuPGBJ[] = {
/* columns rows colors chars-per-pixel */
"50 50 180 2 ",
"   c None",
".  c #061F2C",
"X  c #0D222D",
"o  c #062232",
"O  c #0B2434",
"+  c #0F2837",
"@  c #122635",
"#  c #142937",
"$  c #1A2A37",
"%  c #152A39",
"&  c #1C2C3A",
"*  c #1E303E",
"=  c #222E3A",
"-  c #25313D",
";  c #2B333D",
":  c #33363E",
">  c #3B373E",
",  c #3E383E",
"<  c #1D3141",
"1  c #1A3549",
"2  c #1C3D56",
"3  c #273642",
"4  c #2C3742",
"5  c #2B3944",
"6  c #343740",
"7  c #333A44",
"8  c #3D3A42",
"9  c #323D49",
"0  c #3C3E48",
"q  c #413D44",
"w  c #453F48",
"e  c #36404A",
"r  c #3D434C",
"t  c #2D465C",
"y  c #3F4651",
"u  c #394554",
"i  c #314960",
"p  c #3C5169",
"a  c #444047",
"s  c #44444B",
"d  c #4A454C",
"f  c #44484E",
"g  c #4D494E",
"h  c #504A4F",
"j  c #464A54",
"k  c #4E4D53",
"l  c #494F5A",
"z  c #524E54",
"x  c #534F58",
"c  c #4F5057",
"v  c #4D515C",
"b  c #535157",
"n  c #585157",
"m  c #54535A",
"M  c #5B565B",
"N  c #5E595E",
"B  c #60575C",
"V  c #61595E",
"C  c #445164",
"Z  c #4B5462",
"A  c #4C5A6B",
"S  c #47576C",
"D  c #525660",
"F  c #5C5760",
"G  c #535863",
"H  c #5C5A62",
"J  c #545C6C",
"K  c #415F7D",
"L  c #4B5E79",
"P  c #645D62",
"I  c #695E62",
"U  c #625F68",
"Y  c #5F616F",
"T  c #48607A",
"R  c #566274",
"E  c #586175",
"W  c #57677D",
"Q  c #58667C",
"!  c #676065",
"~  c #6B6266",
"^  c #64616B",
"/  c #6E6569",
"(  c #6F686F",
")  c #70666A",
"_  c #72696E",
"`  c #716466",
"'  c #6B6771",
"]  c #6D6872",
"[  c #6D6E7B",
"{  c #666876",
"}  c #746C73",
"|  c #797076",
" . c #75717B",
".. c #79747F",
"X. c #7F777F",
"o. c #7D767D",
"O. c #7C747C",
"+. c #80777F",
"@. c #3A6083",
"#. c #4B6B8C",
"$. c #5A6B84",
"%. c #596F8C",
"&. c #5A718E",
"*. c #4D7399",
"=. c #5B7493",
"-. c #55759A",
";. c #587599",
":. c #5B799B",
">. c #547293",
",. c #656F85",
"<. c #6F7280",
"1. c #6D778B",
"2. c #7F7780",
"3. c #7B7681",
"4. c #7E7A85",
"5. c #7F7C87",
"6. c #7E7A85",
"7. c #6E7D98",
"8. c #6A7C97",
"9. c #4A7CAC",
"0. c #5478A1",
"q. c #5C7DA4",
"w. c #4B7FB3",
"e. c #807780",
"r. c #807982",
"t. c #847D87",
"y. c #827B84",
"u. c #847E8A",
"i. c #6E809E",
"p. c #5F83AC",
"a. c #5F88B5",
"s. c #5E8BBA",
"d. c #5985B4",
"f. c #6384AC",
"g. c #6886AC",
"h. c #6287B2",
"j. c #648AB6",
"k. c #618CBB",
"l. c #6C8EB6",
"z. c #6B92BE",
"x. c #568BC0",
"c. c #5E93CB",
"v. c #6392C6",
"b. c #6395CA",
"n. c #6699CE",
"m. c #6A95C6",
"M. c #669CD6",
"N. c #6A9DD3",
"B. c #659EDA",
"V. c #67A0DC",
"C. c #68A1DD",
"Z. c #69A4E3",
"A. c #69A7E9",
"S. c #6AAAED",
"D. c #66A3E0",
"F. c #6AADF2",
"G. c #6BB0F6",
"H. c #6CB1F9",
"J. c #86818C",
"K. c #89838D",
"L. c #8D8792",
"P. c #8B8693",
"I. c #8F8A96",
"U. c #8E8995",
"Y. c #908A97",
"T. c #918C99",
"R. c #928D99",
"E. c #958F9D",
"W. c #968F9D",
"Q. c #938E9B",
"!. c #95909E",
"~. c #94909E",
"^. c #96919F",
"/. c #96919D",
"(. c #95909E",
"). c #9692A0",
"_. c #9691A0",
"`. c #9792A0",
"'. c #9893A1",
"]. c #9893A2",
/* pixels */
"                                        ^.E.E.E.E.E.E.E.^.^.                                        ",
"                                      ~.^.^.^.).^.^.^.^.^.^.^.                                      ",
"                                    E.^.^.E.E.^.E.E.^.^.^.^.^.E.                                    ",
"                                  ^.^.^.L.t.t.t.t.t.L.^.^.^.^.^.u.z                                 ",
"                                  ^.^.L.X.} } } } _ X.U.^.).'.'.u.H w 8 8 8 8                       ",
"                                  E.L.X._ / / / ! N ~ 2.U.^.^.^.P. .m q 8 8 8 8 8 8                 ",
"                                  K.r._ / / / ! P N N ~ ..4.5.4.t...P g q 8 8 8 : ; :               ",
"                                L.e._ / / / / P N P N m F H H H H P U M d q a a 7 - ; 6 8           ",
"                              | X.} / / ) / / U N N M z k k k k k z P ! N n n n z r 4 ; 8 q         ",
"                            P P F M M P ! ) / / ! N b z k k k k k z P / / ! ! ! / N r 4 8 8 8       ",
"                          P z 0 4 3 7 g V / / ) ) ! N b z z z z z m U ) _ _ _ _ _ ) H j a q q       ",
"                        ) P r = & & ; 8 z P / } 2.2.^ b k z z k M ' | X.X.X.X.X.+.X.} P b z h       ",
"          8 8 q d k m / ) m 4 & : 6 6 q z U } t.T.T. .m z k k b ^ K.T.T.T.T.T.T.T.L.X._ ! ! V g     ",
"        8 8 8 z ]  .3.y.( s & & 8 q 8 a U 4.J.U.).^.r.P b k b N } U.'.).).).).).'.E.L.X._ ) ! V     ",
"      8 8 8 k ] P.^.).T.' 0 = ; 8 q 8 a } ^.^.E.T.L.X./ N M M P O.T.).^.^.^.^.^.^.^.E.J._ / / / /   ",
"      8 8 d } P.E.^.'.T.' q : 6 8 8 8 d  .'.).).U. .~ / ! ! ! / | L.E.^.^.^.^.^.^.^.^.J._ / / / / / ",
"      , k ] P.^.^.^.).T.^ q , 8 8 a g M 2.).).).J.v s n ! ) ) / } r.L.E.^.^.^.^.^.^.^.J._ / / / / / ",
"      z ' P.^.^.^.^.).T.} g d g x H ^ } t.K.t.u.[ 9 - 8 M ! / / / } J.E.^.^.^.^.^.).^.K./ ! / / / / ",
"      4.P.^.^.^.^.^.^.T...P V ( 4.t.K.K.r.} H M k 7 = - j P / / / / t.T.^.^.^.^.E.E.T.4.P P / / / / ",
"      ^.^.^.^.^.^.).T.J.| ) ) r.E.].).T.X.V q > , 8 = % r M / / ! ! } J.T.^.^.^.U.t.6.' m V / / / / ",
"    ^.^.^.^.^.E.Y.L.y.} / / ) X.U.T.T.L.X.V a 8 8 8 - < C Y / ) P N P } t.T.^.E.J.} U M M P ) / / / ",
"    ^.^.^.^.^.L.X.^ M z N / ) } | X.X.O.} V a 8 q q : u -.8.] / ! P N N ^ u.Q.^.U.y.( V P ! / / /   ",
"    ^.^.^.Q.P. .P g q a m ! P N B V B V V n a a g g d G v.j.^ I / / P N ^ 4.T.^.^.Y.O.P m b M !     ",
"    ^.^.^.P.] b d g k k N V g q q q q a q q 8 z P I I [ m.q.v B ) _ / } J.T.^.^.^.Y.| b < % 9 P     ",
"    ^.^.L.X.H k d k k z b g 4 & = = ; 6 ; = - 8 m ! ) } 7.Q s M } r.t.J.T.^.^.^.^.U.} r % 4 k !     ",
"    ^.^.J.) M k k k b m d 6 $ O @ # - 6 ; & & ; d P ) ) _ V z V | Y.E.^.^.^.^.^.^.P.' s 3 Z [ (     ",
"    ^.).t./ M z z k M N s & O O @ - 6 8 6 : : 6 d P ) / / ! P ! O.Y.).^.^.^.^.^.^.U.} M v :.l.[     ",
"    T.J.| ) P M z k M P r + O # ; : 8 8 8 8 8 8 d V ` / N V / / } y.Y.'.).).'.].].Y.X.[ p.B.N.<.    ",
"      } _ ) / P M b N P s # O & 6 8 8 8 8 8 8 , d ^ } ! z z / / / } t.Y.Y.L.J.K.P.J.| 1.z.N.z.[     ",
"    / / / ) ) / P P ! ! k - @ = 8 q 8 8 8 8 8 , j f.i.^ d z ! ) / / } X.X.] P P ^ | } [ 7.i.1.]     ",
"    / / / / V V / } X.O.] m 4 - 8 q 8 8 8 8 8 C 0.B.g.F a z / ) ) ) ) / V d 6 6 g V ! / ( ( / /     ",
"      / ) ! b z ! r.Y.T.U.3.b 6 8 , , , , q s $.v.M.;.s 8 g P ! ! ! ! N s ; & : q d V / / / / /     ",
"    / / / / V z M 3.^.'.'.P.~ g q , , , 8 a m ,.g.;.p - = 0 z z z z z d ; # % : 8 a M ) / ) ) )     ",
"    / / / / / M g ^ 4.u.u.6.} B z A L L v k b F m r = O O - 8 6 6 7 8 6 % O % 7 a h V ) / / !       ",
"      / / / ) N a d z b z M P I ^ :.s.a.$.k 9 - = # O O O = : = # $ ; ; % o & r b P / / ! V m       ",
"      V P / ) N a , : - = ; r k H &.h.g.W e # o o O O O O = : & O O ; : % O & r N / ) ! V b k       ",
"      E Y ! ! M a 8 : $ O O % - 8 r Z ^ u % O O O # % # O & ; = % $ ; ; & # - s M ! ! V m G J       ",
"      s.=.H M m k a : # O O O @ $ $ 0 M 9 O O O # - ; - # # & ; ; ; = = ; ; 6 8 k M N m D =.k.      ",
"        k.%.G z g d 8 3 % O O O O O 9 H s # O @ = 6 6 ; # O @ = ; ; & # - ; ; ; 0 g z D &.v.F.      ",
"          v.$.G m c g s 4 % O O O O 5 M z 7 & - 6 6 ; % O O O # $ # O O @ # # $ 9 v G %.n.A.F.      ",
"            k.p.q.R z g s 4 % O O O & r k m j a 6 ; & O O O O & & O O O O o X - S q.f.v.A.F.        ",
"            Z.A.C.p.$.R G s - @ O O O & r b v g 8 & O O O O @ 4 7 - & $ & 1 t T p.Z.S.A.F.          ",
"                F.V.n.v.=.D f 5 + O O O * 9 9 r r % O O O O # 0 s s s s j #.x.b.V.F.G.F.            ",
"                  F.G.S.b.q.:.*.@.t - ; 4 4 5 r s & o . . @ ; s g b W :.q.b.S.F.F.S.F.              ",
"                      F.A.C.C.D.c.>.A A l s g k s - < 2 2 i A R R W h.C.Z.A.F.                      ",
"                            H.H.S.n.k.h.$.m m b k y K 9.w.d.k.k.k.k.C.F.H.F.                        ",
"                              S.F.F.F.A.a.%.%.%.%.=.k.S.F.F.F.F.F.F.F.S.S.                          ",
"                                S.F.F.F.D.M.M.M.M.M.Z.F.F.F.F.                                      ",
"                                                                                                    ",
"                                                                                                    "
};
