/* XPM */
static char *a2f08171a8ac42fdbb6787d3fbcf39c0tLsa3zwMjLgFcwg4[] = {
/* columns rows colors chars-per-pixel */
"50 50 136 2 ",
"   c None",
".  c black",
"X  c #2C0000",
"o  c #3B0000",
"O  c #002400",
"+  c #480000",
"@  c #52003C",
"#  c #004F00",
"$  c #004500",
"%  c #005B00",
"&  c #005817",
"*  c #006000",
"=  c #007605",
"-  c #006E33",
";  c #67004A",
":  c #670659",
">  c #7A005A",
",  c #700059",
"<  c #6C1A5C",
"1  c #7D0063",
"2  c #7C0469",
"3  c #7D1864",
"4  c #4E2A62",
"5  c #563569",
"6  c #7C276E",
"7  c #37735C",
"8  c #65467B",
"9  c #860067",
"0  c #9A007A",
"q  c #822E6B",
"w  c #8E2C73",
"e  c #902A75",
"r  c #874878",
"t  c #884B7A",
"y  c #854074",
"u  c #009D1E",
"i  c #00AC33",
"p  c #00BD3E",
"a  c #4E9700",
"s  c #7C8F00",
"d  c #06CF00",
"f  c #00CA13",
"g  c #00C235",
"h  c #5ADA00",
"j  c #00995E",
"k  c #00A352",
"l  c #00C741",
"z  c #10FF5C",
"x  c #34FF48",
"c  c #00D076",
"v  c #00E463",
"b  c #00E678",
"n  c #00FE7B",
"m  c #1AFF7A",
"M  c #3AFF66",
"N  c #2BFF78",
"B  c #78FF42",
"V  c #49FF74",
"C  c #7DFF68",
"Z  c #85FF15",
"A  c #80FF2C",
"S  c #FFFF05",
"D  c #FFFF14",
"F  c #DFFF3F",
"G  c #E1FF3E",
"H  c #89FF44",
"J  c #AEFF55",
"K  c #B3FF6A",
"L  c #D1FF46",
"P  c #FFFF45",
"I  c #FFFF4D",
"U  c #FFFF59",
"Y  c #6A4881",
"T  c #935382",
"R  c #965B89",
"E  c #9C5B8B",
"W  c #975987",
"Q  c #9B5295",
"!  c #8F5181",
"~  c #A4418C",
"^  c #9E628F",
"/  c #9C6891",
"(  c #A36592",
")  c #A37D9F",
"_  c #A4749B",
"`  c #A67AAB",
"'  c #A97BA7",
"]  c #B36BB1",
"[  c #AA79B2",
"{  c #AF6CC9",
"}  c #B179C4",
"|  c #6FB692",
" . c #00FF85",
".. c #00FF89",
"X. c #5DCF8B",
"o. c #62DEA0",
"O. c #79E6B9",
"+. c #A787A6",
"@. c #A386B9",
"#. c #A98BBF",
"$. c #B183B4",
"%. c #B080BF",
"&. c #B093B3",
"*. c #ADFFB2",
"=. c #E6FF82",
"-. c #CFFFB4",
";. c #BD84D9",
":. c #BB9AD3",
">. c #BD9ED9",
",. c #B8AFC8",
"<. c #BAB2CC",
"1. c #BBB9CD",
"2. c #BEA6D7",
"3. c #BFBED5",
"4. c #BDB3D2",
"5. c #C29CD5",
"6. c #C4A1DE",
"7. c #C2BAD4",
"8. c #CC9FE5",
"9. c #C6AAE2",
"0. c #C5B6E4",
"q. c #C4C2DB",
"w. c #D2FFC5",
"e. c #FFFFCB",
"r. c #FFFFDB",
"t. c #C9C2EA",
"y. c #CAC9E1",
"u. c #CED4ED",
"i. c #CECAF4",
"p. c #D3E5FA",
"a. c #D6E2FA",
"s. c #DDF4FF",
"d. c #EBFFFF",
"f. c #E4FFFF",
"g. c #F4FFFF",
"h. c #FDFFFF",
/* pixels */
"                                                                                                    ",
"                                                                                                    ",
"                                                                                                    ",
"                                                                                                    ",
"                                                                                                    ",
"                                                                                                    ",
"                                                                                                    ",
"                                                                                                    ",
"                                                                                                    ",
"                                                                                                    ",
"                                        . . . . . . . . . .                                         ",
"                                      . 4 Y 8 8 8 8 8 8 Y 4 .                                       ",
"                                    . . #.6.:.:.:.:.:.:.6.#.. .                                     ",
"                                  . 5 @.>.5.$.$.$.$.$.$.5.>.@.5 .                                   ",
"                                . . @.9.:.` q 3 6 6 3 q ` :.9.@.. .                                 ",
"                              . 4 #.>.:.$.2 . . . . . . 2 $.:.>.#.4 .                               ",
"                              . 8 6.5.` 1 & i f h h f i & 1 ` 5.6.Y .                               ",
"                              . 8 :.$.q . i  .C G G C  .i . q $.:.8 .                               ",
"                            . @ R ` 6 . - z C U I I U C z - . 6 ` R @ .                             ",
"                          . . T ( T . . c V F P I I P F V c . . T ( ! . .                           ",
"                          . . t ( W X # n N L P I I P L N n # X W ( t . .                           ",
"                          . . r ( R X * n m L P I I P L m n % X R ( r . .                           ",
"                          . . r ( R X % n m L P I I P L m n % X R ( r . .                           ",
"                          . . t E w . O b V F P I I P F V b O . w E t . .                           ",
"                          . . y ' +.: . j M J I I I I J M j . : +.' y . .                           ",
"                          . . 1 7.f.,.; . l  .K P P K  .l . ; ,.f.1.1 . .                           ",
"                          . . > q.h.y.9 + = v x A A x v = + 9 y.h.q.> . .                           ",
"                          . . > q.g.3.w E < . . . . . . < E w 3.g.q.> . .                           ",
"                          . . > q.g.1./ u.1.; + o o + ; 1.u./ 1.g.q.> . .                           ",
"                          . . > q.g.,.+.g.s.^ _ &.&._ ^ s.g.+.,.g.q.> . .                           ",
"                          . . > q.g.<.) d.p.R q.d.d.q.R p.d.) <.g.q.> . .                           ",
"                          . @ 9 q.g.<.) d.p.T p.h.h.p.T p.d.) <.g.7.9 @ .                           ",
"                        . : E w 3.g.<.) d.p.R u.h.h.u.R p.d.) <.g.3.w E : .                         ",
"                        . < ( w q.h.1.W t.0.[ 2.i.i.2.[ 0.t.R 1.h.q.w ( < .                         ",
"                        . : E e <.d.4.Q %.>.0.9.2.2.9.0.>.%.Q 4.d.<.e E : .                         ",
"                        . , ~ 0 ] 8.;.{ } t.d.d.d.d.d.d.t.} { ;.8.] 0 ~ , .                         ",
"                        . 7 | X.o.O.*.w.u.a.g.g.g.g.g.g.a.u.w.*.O.o.X.| 7 .                         ",
"                        . k n  ... .B =.g.g.g.g.g.g.g.g.g.g.=.B  ... .n k .                         ",
"                          % u p l g d H -.r.e.e.e.e.e.e.r.-.H d g l p u %                           ",
"                            . . . . . $ Z S D D D D D D S Z $ . . . . .                             ",
"                                        = a s s s s s s a =                                         ",
"                                        . . . . . . . . . .                                         ",
"                                                                                                    ",
"                                                                                                    ",
"                                                                                                    ",
"                                                                                                    ",
"                                                                                                    ",
"                                                                                                    ",
"                                                                                                    ",
"                                                                                                    "
};
